<svg width="20" height="24" viewBox="0 0 20 24" fill="none" xmlns="http://www.w3.org/2000/svg">
<path d="M1.45782 7.82578H1.39775C0.62779 7.82578 0 8.47042 0 9.25649V15.4855C0 16.2747 0.62779 16.9172 1.39775 16.9172H1.45884C2.2288 16.9172 2.85659 16.2726 2.85659 15.4855V9.25644C2.85557 8.47042 2.22681 7.82578 1.45782 7.82578Z" fill="#8D8F9B"/>
<path d="M3.52541 17.8898C3.52541 18.6134 4.10312 19.2027 4.81 19.2027H6.18274V22.5673C6.18274 23.3574 6.81253 24 7.58049 24H7.64056C8.41154 24 9.04031 23.3564 9.04031 22.5673V19.2027H10.9587V22.5673C10.9587 23.3574 11.5905 24 12.3585 24H12.4176C13.1885 24 13.8163 23.3564 13.8163 22.5673V19.2027H15.19C15.8959 19.2027 16.4736 18.6134 16.4736 17.8898V8.05431H3.52541V17.8898Z" fill="#8D8F9B"/>
<path d="M13.2245 2.08967L14.3149 0.366916C14.385 0.258258 14.3539 0.109691 14.2468 0.0389468C14.1407 -0.032795 13.9955 -0.00305301 13.9264 0.108646L12.796 1.89088C11.948 1.53526 11.0008 1.33543 10.0005 1.33543C8.99923 1.33543 8.05404 1.53526 7.204 1.89088L6.07561 0.108646C6.00654 -0.00305301 5.86033 -0.032795 5.7532 0.0389468C5.64607 0.109643 5.61501 0.258258 5.6851 0.366916L6.77646 2.08967C4.80898 3.07662 3.48234 4.93673 3.48234 7.07045C3.48234 7.20163 3.49037 7.33077 3.50137 7.45886H16.5006C16.5116 7.33077 16.5186 7.20163 16.5186 7.07045C16.5186 4.93673 15.191 3.07662 13.2245 2.08967ZM6.98673 5.17447C6.64129 5.17447 6.36093 4.88955 6.36093 4.53497C6.36093 4.1804 6.64129 3.89647 6.98673 3.89647C7.33416 3.89647 7.61252 4.18035 7.61252 4.53497C7.61252 4.8896 7.33216 5.17447 6.98673 5.17447ZM13.0133 5.17447C12.6678 5.17447 12.3875 4.88955 12.3875 4.53497C12.3875 4.1804 12.6678 3.89647 13.0133 3.89647C13.3597 3.89647 13.638 4.18035 13.638 4.53497C13.638 4.88955 13.3597 5.17447 13.0133 5.17447Z" fill="#8D8F9B"/>
<path d="M18.6012 7.82578H18.5432C17.7732 7.82578 17.1434 8.47042 17.1434 9.25649V15.4855C17.1434 16.2747 17.7742 16.9172 18.5432 16.9172H18.6022C19.3732 16.9172 20 16.2726 20 15.4855V9.25644C20 8.47042 19.3712 7.82578 18.6012 7.82578Z" fill="#8D8F9B"/>
</svg>
