<svg width="20" height="24" viewBox="0 0 20 24" fill="none" xmlns="http://www.w3.org/2000/svg">
<path d="M17.7316 15.7063C17.0711 14.7544 16.741 13.682 16.741 12.49C16.741 11.4035 17.0525 10.4081 17.6742 9.50438C18.0092 9.01401 18.5549 8.44686 19.3111 7.80251C18.8134 7.18732 18.3157 6.70654 17.8177 6.3603C16.918 5.7354 15.8985 5.42296 14.7595 5.42296C14.0801 5.42296 13.252 5.58633 12.2759 5.91348C11.3378 6.24037 10.6533 6.404 10.2228 6.404C9.89716 6.404 9.23682 6.25987 8.24136 5.97127C7.23635 5.68277 6.38919 5.53864 5.70004 5.53864C4.0537 5.53864 2.6945 6.23103 1.62251 7.6155C0.540902 9.01937 0 10.8174 0 13.0097C0 15.3366 0.703686 17.7547 2.11065 20.2643C3.53673 22.7547 4.97734 24 6.43224 24C6.92039 24 7.55216 23.8365 8.32736 23.5096C9.1028 23.1925 9.78235 23.0337 10.3663 23.0337C10.9883 23.0337 11.7111 23.1875 12.5342 23.495C13.4051 23.8024 14.0753 23.9563 14.5443 23.9563C15.7694 23.9563 16.9995 23.014 18.2341 21.1294C19.038 19.9276 19.6267 18.7257 20 17.5237C19.1481 17.2639 18.3921 16.6582 17.7316 15.7063Z" fill="#8D8F9B"/>
<path d="M12.8497 4.5576C13.4529 3.95185 13.898 3.28831 14.1852 2.56728C14.4626 1.84615 14.6011 1.1922 14.6011 0.605599C14.6011 0.567256 14.5991 0.519113 14.5939 0.461372C14.5896 0.403682 14.587 0.355741 14.587 0.317247C14.5774 0.288351 14.5655 0.23546 14.5512 0.158624C14.5369 0.0817871 14.525 0.0288958 14.5152 0C12.8306 0.394437 11.6342 1.10592 10.9258 2.1348C10.2081 3.17328 9.83465 4.40873 9.80589 5.84139C10.4472 5.78365 10.9447 5.70206 11.2991 5.59623C11.8163 5.42311 12.3326 5.07681 12.8497 4.5576Z" fill="#8D8F9B"/>
</svg>
