<svg width="11" height="16" viewBox="0 0 11 16" fill="none" xmlns="http://www.w3.org/2000/svg">
<path fill-rule="evenodd" clip-rule="evenodd" d="M0 1.12911C0 0.745698 0.108571 0.461646 0.326027 0.276955C0.543325 0.0922632 0.848836 0 1.24256 0C1.487 0 1.71109 0.0320201 1.91481 0.0957296C2.11854 0.159769 2.25425 0.205983 2.32227 0.234207V6.34883C2.66171 5.89429 3.13039 5.50724 3.72784 5.1877C4.3253 4.868 5.01112 4.70823 5.78516 4.70823C6.44273 4.70823 7.05533 4.81568 7.62343 5.03025L5.83676 6.90208C5.71398 6.88838 5.58806 6.88145 5.45929 6.88145C4.98382 6.88145 4.55285 6.97025 4.16575 7.14768C3.77881 7.32527 3.44947 7.57021 3.17789 7.88265C2.90631 8.19509 2.69232 8.56447 2.53625 8.99063C2.38018 9.41679 2.30191 9.87118 2.30191 10.3541C2.30191 10.8654 2.38018 11.3342 2.53625 11.7602C2.69248 12.1863 2.90978 12.5485 3.18815 12.8467C3.46652 13.145 3.79917 13.3793 4.18627 13.5498C4.57321 13.7203 4.9977 13.8055 5.45944 13.8055C5.92118 13.8055 6.34537 13.7167 6.73246 13.5393C7.07995 13.3798 7.38373 13.1689 7.64363 12.9065L7.6441 12.906C7.66998 12.8799 7.69523 12.8533 7.72017 12.8262L10.9433 9.4498C10.9811 9.74161 11 10.043 11 10.3541C11 11.1637 10.8643 11.9165 10.5925 12.6123C10.321 13.3084 9.94081 13.9048 9.45193 14.402C8.96289 14.8991 8.38248 15.2896 7.71023 15.5738C7.03797 15.8579 6.30134 16 5.50016 16C4.69898 16 3.96218 15.8722 3.28993 15.6166C2.61768 15.3608 2.03711 14.9773 1.54839 14.4662C1.05935 13.9547 0.679196 13.3158 0.407612 12.5486C0.136029 11.7816 0.00015796 10.8798 0.00015796 9.84295L0 1.12911Z" fill="white" fill-opacity="0.5"/>
<path d="M10.6617 7.29688C10.8862 7.06202 10.9842 6.81675 10.9563 6.56092C10.9282 6.30526 10.798 6.0557 10.5654 5.81242C10.413 5.65298 10.2526 5.52721 10.0842 5.43495C9.91587 5.34269 9.80367 5.28409 9.74749 5.25884L5.89877 9.28409L5.35892 8.71945C5.13468 8.48475 4.8997 8.38209 4.65526 8.4113C4.41066 8.44068 4.17206 8.57701 3.93962 8.8203C3.78717 8.97974 3.66693 9.14743 3.57856 9.32354C3.4905 9.49965 3.43416 9.617 3.41018 9.67576L4.93505 11.2706C5.46575 11.8257 6.33148 11.8257 6.86233 11.2705L10.6617 7.29688Z" fill="white" fill-opacity="0.5"/>
</svg>
