<svg width="9" height="12" viewBox="0 0 9 12" fill="none" xmlns="http://www.w3.org/2000/svg">
<path fill-rule="evenodd" clip-rule="evenodd" d="M0 0.846833C0 0.559274 0.0829086 0.346235 0.248966 0.207716C0.414903 0.0691974 0.648202 0 0.948865 0C1.13553 0 1.30665 0.0240151 1.46222 0.0717972C1.61779 0.119827 1.72143 0.154487 1.77337 0.175655V4.76163C2.03258 4.42071 2.39048 4.13043 2.84672 3.89078C3.30295 3.651 3.82667 3.53117 4.41776 3.53117C4.9199 3.53117 5.38771 3.61176 5.82153 3.77268L4.45716 5.17656C4.36341 5.16629 4.26724 5.16109 4.16891 5.16109C3.80582 5.16109 3.47672 5.22769 3.18112 5.36076C2.88564 5.49396 2.63414 5.67766 2.42675 5.91199C2.21936 6.14632 2.05596 6.42335 1.93677 6.74297C1.81759 7.06259 1.75782 7.40338 1.75782 7.76559C1.75782 8.14908 1.81759 8.50064 1.93677 8.82014C2.05608 9.13976 2.22201 9.41135 2.43459 9.63503C2.64716 9.85872 2.90119 10.0345 3.19679 10.1624C3.49227 10.2902 3.81643 10.3541 4.16903 10.3541C4.52163 10.3541 4.84555 10.2875 5.14115 10.1544C5.40651 10.0349 5.63848 9.87667 5.83696 9.67984L5.83732 9.67947C5.85708 9.65991 5.87636 9.63998 5.8954 9.61968L8.35674 7.08735C8.38554 7.30621 8.4 7.53225 8.4 7.76559C8.4 8.37277 8.29637 8.93736 8.08885 9.45925C7.88146 9.98127 7.59116 10.4286 7.21783 10.8015C6.84439 11.1743 6.40117 11.4672 5.88781 11.6804C5.37445 11.8934 4.81193 12 4.20012 12C3.58831 12 3.02567 11.9042 2.51231 11.7124C1.99896 11.5206 1.55561 11.233 1.18241 10.8496C0.808958 10.466 0.518659 9.98684 0.311268 9.41147C0.103876 8.83623 0.000120624 8.15985 0.000120624 7.38222L0 0.846833Z" fill="#8D8F9B"/>
<path d="M8.14163 5.47266C8.31311 5.29651 8.38795 5.11256 8.36662 4.92069C8.34517 4.72895 8.24575 4.54178 8.06812 4.35931C7.95171 4.23974 7.82928 4.14541 7.7007 4.07621C7.57212 4.00701 7.48644 3.96307 7.44354 3.94413L4.50452 6.96307L4.09227 6.53959C3.92103 6.36356 3.74159 6.28657 3.55493 6.30848C3.36814 6.33051 3.18594 6.43276 3.00843 6.61522C2.89202 6.7348 2.8002 6.86057 2.73272 6.99265C2.66547 7.12474 2.62245 7.21275 2.60414 7.25682L3.76859 8.45298C4.17385 8.86928 4.83494 8.86928 5.24033 8.45286L8.14163 5.47266Z" fill="#8D8F9B"/>
</svg>
