<svg width="20" height="20" viewBox="0 0 20 20" fill="none" xmlns="http://www.w3.org/2000/svg">
<path d="M8.9336 17.3333L10 16.2472M10 16.2472L8.9336 15.161M10 16.2472C5.5816 16.2472 2 14.8286 2 13.0784C2 12.5569 2.3264 12.068 2.8888 11.6345M17.1112 11.6345C17.6736 12.068 18 12.5569 18 13.0784C18 14.4114 15.92 15.5497 12.9776 16.0182M8.08 2.66667V4.42667C8.08 4.75015 8.2952 5.01333 8.56 5.01333H11.44C11.7048 5.01333 11.92 4.75015 11.92 4.42667V2.66667M5.2 12.4444V4.62222C5.2 3.54178 6.0592 2.66667 7.12 2.66667H12.88C13.9408 2.66667 14.8 3.54178 14.8 4.62222V12.4444" stroke="#FF9933" stroke-linecap="round" stroke-linejoin="round"/>
</svg>
