<svg width="20" height="20" viewBox="0 0 20 20" fill="none" xmlns="http://www.w3.org/2000/svg">
<path d="M11.89 19C11.9592 18.5445 11.996 18.0847 12 17.624C12 15.0716 10.986 12.6237 9.1812 10.8188C7.37635 9.01395 4.92844 8 2.376 8C1.91527 8.00319 1.45539 8.03995 1 8.11M1 14V6C1 4.67392 1.52678 3.40215 2.46447 2.46447C3.40215 1.52678 4.67392 1 6 1H14C15.3261 1 16.5979 1.52678 17.5355 2.46447C18.4732 3.40215 19 4.67392 19 6V14C19 15.3261 18.4732 16.5979 17.5355 17.5355C16.5979 18.4732 15.3261 19 14 19H6C4.67392 19 3.40215 18.4732 2.46447 17.5355C1.52678 16.5979 1 15.3261 1 14ZM13.854 6.854C13.784 6.9238 13.6949 6.97129 13.598 6.99049C13.501 7.00968 13.4005 6.9997 13.3093 6.96182C13.218 6.92394 13.14 6.85985 13.0851 6.77765C13.0302 6.69546 13.0009 6.59884 13.0009 6.5C13.0009 6.40116 13.0302 6.30454 13.0851 6.22235C13.14 6.14015 13.218 6.07606 13.3093 6.03818C13.4005 6.0003 13.501 5.99032 13.598 6.00951C13.6949 6.02871 13.784 6.0762 13.854 6.146C13.9006 6.19245 13.9375 6.24762 13.9627 6.30837C13.9879 6.36911 14.0009 6.43423 14.0009 6.5C14.0009 6.56577 13.9879 6.63089 13.9627 6.69163C13.9375 6.75238 13.9006 6.80755 13.854 6.854Z" stroke="#8D8F9B" stroke-linecap="round" stroke-linejoin="round"/>
</svg>
