<svg width="20" height="20" viewBox="0 0 20 20" fill="none" xmlns="http://www.w3.org/2000/svg">
<path d="M15.9733 10.0647L17.7033 8.33471C18.1097 7.94046 18.4336 7.46933 18.6562 6.94874C18.8788 6.42815 18.9956 5.86849 18.9999 5.30232C19.0042 4.73615 18.8958 4.17479 18.6811 3.65088C18.4664 3.12698 18.1497 2.65101 17.7493 2.25065C17.349 1.8503 16.873 1.53357 16.3491 1.31888C15.8252 1.10419 15.2638 0.995837 14.6977 1.00012C14.1315 1.00441 13.5719 1.12125 13.0513 1.34384C12.5307 1.56643 12.0595 1.89034 11.6653 2.29671L7.96529 5.99671C7.56865 6.39307 7.25401 6.8637 7.03933 7.38171C6.82465 7.89973 6.71416 8.45497 6.71416 9.01571C6.71416 9.57644 6.82465 10.1317 7.03933 10.6497C7.25401 11.1677 7.56865 11.6383 7.96529 12.0347L7.95429 12.0457C8.29893 12.3838 8.69908 12.6601 9.13729 12.8627M10.7603 7.23871C11.1985 7.44163 11.5987 7.71832 11.9433 8.0567C12.3399 8.45306 12.6546 8.9237 12.8693 9.44172C13.0839 9.95973 13.1944 10.515 13.1944 11.0757C13.1944 11.6364 13.0839 12.1917 12.8693 12.7097C12.6546 13.2277 12.3399 13.6983 11.9433 14.0947L8.24329 17.7947C7.43852 18.5755 6.35893 19.0084 5.23768 18.9999C4.11643 18.9914 3.04352 18.5422 2.25065 17.7493C1.45779 16.9565 1.00861 15.8836 1.00012 14.7623C0.991636 13.6411 1.42452 12.5615 2.20529 11.7567L3.93529 10.0267" stroke="#8D8F9B" stroke-linecap="round" stroke-linejoin="round"/>
</svg>
