<svg width="16" height="16" viewBox="0 0 16 16" fill="none" xmlns="http://www.w3.org/2000/svg">
<path d="M1.00049 9.80056V8.00311C1.00049 4.15156 4.15064 1 8.00049 1C11.8503 1 15.0005 4.15156 15.0005 8.00311V9.80056M1.00049 9.80056V13.4444C1.00049 14.3039 1.69629 15 2.55535 15H3.68807C4.11799 15 4.4655 14.6516 4.4655 14.2222V10.5776C4.4655 10.1482 4.11721 9.79978 3.68807 9.79978L1.00049 9.80056ZM15.0005 9.80056V13.4444C15.0005 14.3039 14.3047 15 13.4456 15H12.3129C11.883 15 11.5355 14.6516 11.5355 14.2222V10.5776C11.5355 10.1482 11.8838 9.79978 12.3129 9.79978L15.0005 9.80056Z" stroke="#8D8F9B" stroke-linecap="round" stroke-linejoin="round"/>
</svg>
