<svg width="9" height="13" viewBox="0 0 9 13" fill="none" xmlns="http://www.w3.org/2000/svg">
<path d="M6.63281 7.77344H3.63281C3.65365 8.78906 3.89844 9.57031 4.36719 10.1172C4.83594 10.6641 5.5 10.9375 6.35938 10.9375C6.96354 10.9375 7.53125 10.849 8.0625 10.6719L8.21875 11.9219C7.59375 12.0781 6.96875 12.1562 6.34375 12.1562C5.05208 12.1562 4.03385 11.776 3.28906 11.0156C2.54948 10.25 2.16406 9.16927 2.13281 7.77344H0.742188V6.80469H2.13281V5.73438H0.742188V4.75781H2.13281C2.1849 3.39323 2.58073 2.33854 3.32031 1.59375C4.0651 0.84375 5.07031 0.46875 6.33594 0.46875C6.88802 0.46875 7.51562 0.549479 8.21875 0.710938L8.0625 1.97656C7.49479 1.79427 6.92448 1.70312 6.35156 1.70312C5.4974 1.70312 4.83854 1.96875 4.375 2.5C3.91667 3.02604 3.67188 3.77865 3.64062 4.75781H6.63281V5.73438H3.63281V6.80469H6.63281V7.77344Z" fill="#8D96B2"/>
</svg>
