<svg width="20" height="16" viewBox="0 0 20 16" fill="none" xmlns="http://www.w3.org/2000/svg">
<path d="M12.1224 5.88C13.2934 7.051 13.2934 8.952 12.1224 10.125C10.9514 11.296 9.05043 11.296 7.87743 10.125C6.70643 8.954 6.70643 7.053 7.87743 5.88C9.05043 4.707 10.9504 4.707 12.1224 5.88Z" stroke="#8D8F9B" stroke-linecap="round" stroke-linejoin="round"/>
<path d="M1.00043 8C1.00043 7.341 1.15243 6.689 1.44643 6.088C2.96143 2.991 6.30943 1 10.0004 1C13.6914 1 17.0394 2.991 18.5544 6.088C18.8484 6.689 19.0004 7.341 19.0004 8C19.0004 8.659 18.8484 9.311 18.5544 9.912C17.0394 13.009 13.6914 15 10.0004 15C6.30943 15 2.96143 13.009 1.44643 9.912C1.15243 9.311 1.00043 8.659 1.00043 8Z" stroke="#8D8F9B" stroke-linecap="round" stroke-linejoin="round"/>
</svg>
