<svg width="14" height="14" viewBox="0 0 14 14" fill="none" xmlns="http://www.w3.org/2000/svg">
<path fill-rule="evenodd" clip-rule="evenodd" d="M0 1C0 0.447716 0.447715 0 1 0H3.23077V3.23077H0V1ZM0 5.38462H3.23077V8.61539H0V5.38462ZM3.23077 10.7692H0V13C0 13.5523 0.447716 14 1 14H3.23077V10.7692ZM5.38462 0H8.61539V3.23077H5.38462V0ZM8.61539 5.38462H5.38462V8.61539H8.61539V5.38462ZM5.38462 10.7692H8.61539V14H5.38462V10.7692ZM13 0H10.7692V3.23077H14V1C14 0.447715 13.5523 0 13 0ZM10.7692 5.38462H14V8.61539H10.7692V5.38462ZM14 10.7692H10.7692V14H13C13.5523 14 14 13.5523 14 13V10.7692Z" fill="#DEDFE6"/>
</svg>
