<svg width="16" height="16" viewBox="0 0 16 16" fill="none" xmlns="http://www.w3.org/2000/svg">
<path d="M4.11111 11.8889H2.55556C2.143 11.8889 1.74733 11.725 1.45561 11.4333C1.16389 11.1416 1 10.7459 1 10.3333V2.55556C1 2.143 1.16389 1.74733 1.45561 1.45561C1.74733 1.16389 2.143 1 2.55556 1H10.3333C10.7459 1 11.1416 1.16389 11.4333 1.45561C11.725 1.74733 11.8889 2.143 11.8889 2.55556V4.11111M5.66667 4.11111H13.4444C14.3036 4.11111 15 4.80756 15 5.66667V13.4444C15 14.3036 14.3036 15 13.4444 15H5.66667C4.80756 15 4.11111 14.3036 4.11111 13.4444V5.66667C4.11111 4.80756 4.80756 4.11111 5.66667 4.11111Z" stroke="#8D8F9B" stroke-linecap="round" stroke-linejoin="round"/>
</svg>
