<svg width="20" height="12" viewBox="0 0 20 12" fill="none" xmlns="http://www.w3.org/2000/svg">
<path d="M10.9808 11.9498C10.9808 11.9498 11.3418 11.9077 11.5267 11.6988C11.6959 11.5075 11.69 11.1464 11.69 11.1464C11.69 11.1464 11.6675 9.46019 12.4119 9.21122C13.1456 8.96637 14.0876 10.8418 15.0873 11.563C15.8425 12.1083 16.4157 11.9889 16.4157 11.9889L19.0872 11.9498C19.0872 11.9498 20.4841 11.8593 19.8218 10.704C19.767 10.6093 19.4354 9.84907 17.8361 8.28737C16.1604 6.65263 16.3854 6.91703 18.4024 4.08891C19.6311 2.36672 20.1221 1.3153 19.9685 0.865724C19.8228 0.435692 18.9189 0.549887 18.9189 0.549887L15.9119 0.569434C15.9119 0.569434 15.6889 0.537542 15.5236 0.641449C15.3622 0.743299 15.2575 0.980948 15.2575 0.980948C15.2575 0.980948 14.7821 2.31322 14.1473 3.44694C12.8081 5.83784 12.273 5.96438 12.0539 5.81623C11.5443 5.46953 11.6714 4.42532 11.6714 3.68356C11.6714 1.36571 12.006 0.399685 11.0209 0.14969C10.6942 0.0663587 10.4536 0.0118331 9.61722 0.00257405C8.54413 -0.00874258 7.63636 0.00668922 7.12183 0.271087C6.77946 0.447009 6.51534 0.840004 6.67675 0.862638C6.87532 0.890415 7.32529 0.990207 7.56397 1.33176C7.87211 1.77311 7.86135 2.7628 7.86135 2.7628C7.86135 2.7628 8.0384 5.49114 7.44757 5.82961C7.04259 6.06211 6.48698 5.58784 5.29259 3.41814C4.68122 2.30705 4.21951 1.07868 4.21951 1.07868C4.21951 1.07868 4.13049 0.849263 3.97104 0.725809C3.77834 0.576636 3.50933 0.53034 3.50933 0.53034L0.652008 0.549887C0.652008 0.549887 0.222578 0.562233 0.0650879 0.75873C-0.0747949 0.932595 0.0543276 1.2937 0.0543276 1.2937C0.0543276 1.2937 2.29147 6.79872 4.82501 9.57335C7.14824 12.1165 9.78547 11.9498 9.78547 11.9498H10.9808Z" fill="white"/>
</svg>
