<svg width="18" height="18" viewBox="0 0 18 18" fill="none" xmlns="http://www.w3.org/2000/svg">
<path fill-rule="evenodd" clip-rule="evenodd" d="M9.03768 17.8453H9.03397C7.534 17.8448 6.06013 17.4703 4.75108 16.7597L0 18L1.27147 13.378C0.487165 12.0253 0.0744683 10.4909 0.0751408 8.9189C0.0771069 4.00106 4.09762 0 9.0376 0C11.4351 0.0010298 13.6854 0.929916 15.3775 2.61588C17.0696 4.30176 18.0009 6.54271 18 8.92594C17.998 13.8427 13.9791 17.8433 9.03768 17.8453ZM4.97129 15.1449L5.2433 15.3055C6.38701 15.981 7.69804 16.3384 9.03474 16.3389H9.03776C13.1435 16.3389 16.4852 13.0132 16.4868 8.92537C16.4876 6.94445 15.7135 5.08187 14.3071 3.68056C12.9007 2.27925 11.0304 1.50716 9.04069 1.50647C4.93176 1.50647 1.59004 4.83189 1.58841 8.91936C1.58784 10.3202 1.98167 11.6844 2.72734 12.8647L2.90446 13.1452L2.15193 15.8809L4.97129 15.1449ZM13.2461 10.8464C13.4023 10.9215 13.5078 10.9722 13.5528 11.047C13.6088 11.14 13.6088 11.5862 13.4223 12.1069C13.2356 12.6274 12.3409 13.1026 11.9107 13.1665C11.5249 13.2239 11.0366 13.2479 10.5002 13.0782C10.1749 12.9755 9.75784 12.8384 9.22356 12.6088C7.12416 11.7066 5.70541 9.68157 5.43727 9.29885C5.41849 9.27204 5.40535 9.25329 5.39802 9.24354L5.39622 9.24115C5.27771 9.08379 4.48362 8.02936 4.48362 6.93806C4.48362 5.91148 4.99032 5.3734 5.22355 5.12571C5.23953 5.10875 5.25423 5.09314 5.26739 5.07883C5.47265 4.85571 5.71528 4.79993 5.86456 4.79993C6.01383 4.79993 6.16329 4.8013 6.29376 4.80782C6.30986 4.80863 6.32661 4.80853 6.34392 4.80843C6.47442 4.80767 6.63711 4.80672 6.79761 5.1904C6.85936 5.33805 6.9497 5.55694 7.04498 5.78781C7.23768 6.25469 7.4506 6.77056 7.48806 6.84521C7.54405 6.95677 7.58137 7.08687 7.50672 7.23568C7.49552 7.25799 7.48516 7.27904 7.47526 7.29916C7.41919 7.41307 7.37795 7.49687 7.28279 7.60744C7.24538 7.65092 7.20671 7.69779 7.16804 7.74465C7.09099 7.83803 7.01396 7.9314 6.94688 7.99791C6.83477 8.10904 6.71806 8.22961 6.84869 8.45274C6.97932 8.67586 7.42875 9.40565 8.09449 9.99663C8.81012 10.6319 9.43209 10.9004 9.74736 11.0365C9.80892 11.0631 9.85879 11.0846 9.89537 11.1028C10.1192 11.2144 10.2499 11.1957 10.3805 11.047C10.5111 10.8983 10.9403 10.3962 11.0896 10.1732C11.2388 9.95012 11.3882 9.98727 11.5934 10.0616C11.7987 10.1361 12.8997 10.6752 13.1237 10.7867C13.1674 10.8085 13.2082 10.8281 13.2461 10.8464Z" fill="white"/>
</svg>
