<svg width="30" height="30" viewBox="0 0 30 30" fill="none" xmlns="http://www.w3.org/2000/svg">
<path d="M21.7237 5.77625C22.2208 6.27364 22.5 6.94806 22.5 7.65125C22.5 8.35445 22.2208 9.02886 21.7237 9.52625L9.24 22.01C8.91964 22.3303 8.51826 22.5576 8.07875 22.6675L3.75 23.75L4.8325 19.4213C4.9424 18.9817 5.16966 18.5804 5.49 18.26L17.975 5.77625C18.4722 5.27926 19.1464 5.00006 19.8494 5.00006C20.5524 5.00006 21.2266 5.27926 21.7237 5.77625V5.77625Z" stroke="#4F5159" stroke-linecap="round" stroke-linejoin="round"/>
<path d="M19.375 11.875L15.625 8.125" stroke="#4F5159" stroke-linecap="round" stroke-linejoin="round"/>
<path d="M26.25 22.5L24.8825 23.8675C24.1573 24.5926 23.1737 24.9999 22.1482 24.9999C21.1226 24.9999 20.1391 24.5926 19.4138 23.8675C18.6875 23.1439 17.704 22.7376 16.6788 22.7376C15.6535 22.7376 14.6701 23.1439 13.9438 23.8675" stroke="#8D8F9B" stroke-linecap="round" stroke-linejoin="round"/>
</svg>
