<svg width="30" height="30" viewBox="0 0 30 30" fill="none" xmlns="http://www.w3.org/2000/svg">
<path d="M13.4004 26L15 24.3708M15 24.3708L13.4004 22.7416M15 24.3708C8.3724 24.3708 3 22.2429 3 19.6176C3 18.8353 3.4896 18.102 4.3332 17.4518M25.6668 17.4518C26.5104 18.102 27 18.8353 27 19.6176C27 21.6171 23.88 23.3246 19.4664 24.0273M12.12 4V6.64C12.12 7.12522 12.4428 7.52 12.84 7.52H17.16C17.5572 7.52 17.88 7.12522 17.88 6.64V4M7.8 18.6667V6.93333C7.8 5.31267 9.0888 4 10.68 4H19.32C20.9112 4 22.2 5.31267 22.2 6.93333V18.6667" stroke="#8D8F9B" stroke-linecap="round" stroke-linejoin="round"/>
</svg>
