<svg width="18" height="18" viewBox="0 0 18 18" fill="none" xmlns="http://www.w3.org/2000/svg">
<path d="M16.1579 8.57895V12.7895C16.1579 13.9062 15.7143 14.9771 14.9247 15.7668C14.135 16.5564 13.0641 17 11.9474 17H5.21053C4.09383 17 3.02286 16.5564 2.23323 15.7668C1.44361 14.9771 1 13.9062 1 12.7895V6.05263C1 4.93593 1.44361 3.86497 2.23323 3.07534C3.02286 2.28571 4.09383 1.84211 5.21053 1.84211H9.42105M12.7895 3.10526H17M14.8947 5.21053V1M10.7229 7.27705C11.1468 7.70107 11.4355 8.24124 11.5523 8.82928C11.6692 9.41733 11.6091 10.0268 11.3797 10.5807C11.1502 11.1346 10.7616 11.608 10.2631 11.9411C9.76458 12.2742 9.17849 12.4519 8.57895 12.4519C7.9794 12.4519 7.39331 12.2742 6.8948 11.9411C6.39628 11.608 6.00771 11.1346 5.77823 10.5807C5.54875 10.0268 5.48865 9.41733 5.60555 8.82928C5.72244 8.24124 6.01107 7.70107 6.43495 7.27705C6.71647 6.99544 7.05071 6.77205 7.41858 6.61963C7.78646 6.46722 8.18075 6.38877 8.57895 6.38877C8.97714 6.38877 9.37144 6.46722 9.73931 6.61963C10.1072 6.77205 10.4414 6.99544 10.7229 7.27705Z" stroke="#131315" stroke-linecap="round" stroke-linejoin="round"/>
</svg>
