<svg width="22" height="22" viewBox="0 0 22 22" fill="none" xmlns="http://www.w3.org/2000/svg">
<path d="M11 12.3889V12.1111C11 11.2033 11.5611 10.7111 12.1233 10.3333C12.6722 9.96333 13.2222 9.48111 13.2222 8.59222C13.2222 7.36444 12.2278 6.37 11 6.37C9.77222 6.37 8.77778 7.36444 8.77778 8.59222M11 21C5.47667 21 1 16.5233 1 11C1 5.47667 5.47667 1 11 1C16.5233 1 21 5.47667 21 11C21 16.5233 16.5233 21 11 21ZM10.9989 15.4444C10.8456 15.4444 10.7211 15.5689 10.7222 15.7222C10.7222 15.8756 10.8467 16 11 16C11.1533 16 11.2778 15.8756 11.2778 15.7222C11.2778 15.5689 11.1533 15.4444 10.9989 15.4444Z" stroke="white" stroke-linecap="round" stroke-linejoin="round"/>
</svg>
