<svg width="30" height="30" viewBox="0 0 30 30" fill="none" xmlns="http://www.w3.org/2000/svg">
<path d="M17.3865 12.6135C18.7045 13.9315 18.7045 16.0685 17.3865 17.3865C16.0685 18.7045 13.9315 18.7045 12.6135 17.3865C11.2955 16.0685 11.2955 13.9315 12.6135 12.6135C13.9315 11.2955 16.0685 11.2955 17.3865 12.6135" stroke="#8D8F9B" stroke-width="1.5" stroke-linecap="round" stroke-linejoin="round"/>
<path d="M6.56252 15C6.56252 15.3712 6.59627 15.7425 6.64127 16.1025L4.65627 17.655C4.21627 18 4.09627 18.6162 4.37627 19.1L6.14127 22.1537C6.42002 22.6375 7.01252 22.8413 7.53127 22.6338L9.30877 21.92C9.66002 21.7787 10.0513 21.835 10.3663 22.0438C10.6413 22.2263 10.9263 22.3937 11.2213 22.5437C11.5588 22.715 11.8038 23.0212 11.8575 23.3962L12.1288 25.2875C12.2075 25.84 12.6813 26.25 13.2388 26.25H16.76C17.3175 26.25 17.7913 25.84 17.87 25.2875L18.1413 23.3975C18.195 23.0225 18.4425 22.7137 18.7813 22.5437C19.075 22.3962 19.3588 22.23 19.6325 22.0487C19.95 21.8387 20.3425 21.7788 20.695 21.9213L22.4688 22.6338C22.9863 22.8413 23.5788 22.6375 23.8588 22.1537L25.6238 19.1C25.9038 18.6162 25.7838 17.9987 25.3438 17.655L23.3588 16.1025C23.4038 15.7425 23.4375 15.3712 23.4375 15C23.4375 14.6288 23.4038 14.2575 23.3588 13.8975L25.3438 12.345C25.7838 12 25.9038 11.3838 25.6238 10.9L23.8588 7.84625C23.58 7.3625 22.9875 7.15875 22.4688 7.36625L20.695 8.07875C20.3425 8.22 19.95 8.16125 19.6325 7.95125C19.3588 7.77 19.075 7.60375 18.7813 7.45625C18.4425 7.28625 18.195 6.9775 18.1413 6.6025L17.8713 4.7125C17.7925 4.16 17.3188 3.75 16.7613 3.75H13.24C12.6825 3.75 12.2088 4.16 12.13 4.7125L11.8575 6.605C11.8038 6.97875 11.5575 7.28625 11.2213 7.4575C10.9263 7.6075 10.6413 7.77625 10.3663 7.9575C10.05 8.165 9.65877 8.22125 9.30752 8.08L7.53127 7.36625C7.01252 7.15875 6.42002 7.3625 6.14127 7.84625L4.37627 10.9C4.09627 11.3838 4.21627 12.0013 4.65627 12.345L6.64127 13.8975C6.59627 14.2575 6.56252 14.6288 6.56252 15V15Z" stroke="#8D8F9B" stroke-width="1.5" stroke-linecap="round" stroke-linejoin="round"/>
</svg>
