<svg width="51" height="46" viewBox="0 0 51 46" fill="none" xmlns="http://www.w3.org/2000/svg">
<path opacity="0.1" fill-rule="evenodd" clip-rule="evenodd" d="M40.7081 15.1764L36.7374 12.8839L37.005 12.3618C37.8987 10.3744 39.1561 9.54423 41.5054 9.54743C43.8166 9.52865 44.5755 9.2395 45.2054 8.14851L45.2201 8.12314C45.8133 7.09558 45.3662 5.90713 44.1864 5.22598C42.9686 4.52286 41.6406 4.88941 40.9653 5.97112L40.914 6.05992L36.7911 3.67955L36.8497 3.57806C38.7388 0.42319 42.4109 -0.399883 46.4704 1.94387C50.3142 4.16311 51.6742 7.63769 49.9164 10.6823L49.9017 10.7077C48.825 12.5725 47.2026 13.3611 44.7153 13.3627C42.3987 13.3615 41.5724 13.6794 40.9205 14.8085L40.7081 15.1764ZM38.9324 19.3946C38.1926 20.6759 36.5357 21.0556 35.2164 20.2938C33.8843 19.5248 33.3973 17.9074 34.1371 16.6261C34.8695 15.3575 36.5137 14.9705 37.8458 15.7396C39.1651 16.5013 39.6648 18.1261 38.9324 19.3946ZM19.0161 35.1079L14.6934 39.4306L14.1133 38.9058C11.8622 37.069 11.2269 35.1631 12.0417 32.1386C12.8151 29.1555 12.7046 28.0783 11.5169 26.8905L11.4893 26.8629C10.3706 25.7442 8.68571 25.91 7.40132 27.1944C6.07549 28.5202 6.0893 30.357 7.2494 31.6L7.34608 31.6967L2.8576 36.1851L2.74712 36.0746C-0.664119 32.5529 -0.456959 27.5396 3.96246 23.1202C8.14709 18.9356 13.0913 18.3832 16.4059 21.6977L16.4335 21.7253C18.4637 23.7555 18.9194 26.1171 18.0632 29.3212C17.2621 32.3043 17.3864 33.4782 18.6156 34.7074L19.0161 35.1079ZM23.836 38.8506C25.2309 40.2455 25.148 42.5104 23.7117 43.9467C22.2616 45.3968 20.0105 45.4659 18.6156 44.071C17.2345 42.69 17.3036 40.4388 18.7537 38.9887C20.19 37.5524 22.455 37.4695 23.836 38.8506Z" fill="black"/>
</svg>
