<svg width="20" height="21" viewBox="0 0 20 21" fill="none" xmlns="http://www.w3.org/2000/svg">
<path d="M6.38401 13.387C6.89901 13.387 7.38401 13.493 7.80801 13.706C8.12601 11.61 9.94501 10 12.126 10C14.505 10 16.444 11.914 16.505 14.283C17.929 14.465 19.035 15.68 19.035 17.184C19.035 18.794 17.732 20.1 16.126 20.1H6.38401C4.53601 20.1 3.03601 18.596 3.03601 16.744C3.03601 14.89 4.53601 13.387 6.38401 13.387Z" stroke="#1D32A8" stroke-linecap="round" stroke-linejoin="round"/>
<path d="M8.96001 1.8V1" stroke="#FF9933" stroke-linecap="round" stroke-linejoin="round"/>
<path d="M14.06 3.91L14.62 3.34" stroke="#FF9933" stroke-linecap="round" stroke-linejoin="round"/>
<path d="M0.960007 9H1.76001" stroke="#FF9933" stroke-linecap="round" stroke-linejoin="round"/>
<path d="M3.31001 3.34L3.87001 3.91" stroke="#FF9933" stroke-linecap="round" stroke-linejoin="round"/>
<path d="M11.793 6.172C11.069 5.448 10.069 5 8.964 5C6.755 5 4.964 6.791 4.964 9" stroke="#FF9933" stroke-linecap="round" stroke-linejoin="round"/>
</svg>
