<svg width="191" height="241" viewBox="0 0 191 241" fill="none" xmlns="http://www.w3.org/2000/svg">
<path d="M125.265 111.056C125.273 111.056 125.282 111.056 125.291 111.057L125.289 111.056C125.28 111.056 125.272 111.056 125.265 111.056Z" fill="black"/>
<path d="M108.814 108.611C99.7884 106.486 88.7982 102.774 80.2255 99.5239C80.4673 104.674 80.7999 111.382 80.7999 111.382C100.457 120.15 105.798 110.824 122.612 110.958C117.68 110.619 112.459 109.45 108.814 108.611Z" fill="black"/>
<path d="M94.9466 45.0132C96.7211 45.3235 97.7704 45.512 97.7704 45.512C97.7704 45.512 105.836 47.9926 112.078 49.6349L111.5 61.2388L127.948 51.8326C130.112 51.9114 132.161 51.9354 133.882 51.9354C138.206 51.9783 141.86 52.8594 145.598 55.8817C153.239 62.0119 153.421 78.7055 148.898 90.1259L146.505 91.1425C148.063 87.6077 148.718 84.9917 147.864 84.9351C141.944 84.558 130.271 79.2677 130.271 79.2677L122.083 94.8436C122.083 94.8436 94.5985 91.0002 80.1724 87.5528C80.3695 85.0894 80.7056 82.6243 81.1719 80.1746L97.8956 78.7123L94.9466 45.0132Z" fill="black"/>
<path d="M133.152 188.271L140.082 237.96H148.996L147.139 215.734L142.451 207.075L138.683 199.858L135.213 192.838L133.152 188.271Z" fill="#FF9933"/>
<path d="M146.453 91.1411C158.232 86.2143 168.372 82.4172 172.091 81.6595C202.911 75.3201 186.409 114.448 177.886 127.883C172.007 137.12 161.93 148.37 156.01 157.564C155.002 159.033 167.299 174.007 166.172 175.826C164.84 177.974 155.012 171.654 155.012 171.654" stroke="black" stroke-width="2" stroke-linecap="round" stroke-linejoin="round"/>
<path d="M146.234 137.095C150.93 129.172 156.449 121.732 162.602 114.741C156.319 118.785 146.491 126.529 139.718 132.004" stroke="black" stroke-width="2" stroke-linecap="round" stroke-linejoin="round"/>
<path d="M121.659 117.892L147.821 138.337L166.549 225.115C166.549 225.115 190.357 239.179 189.265 239.725C186.831 240.901 153.826 237.92 153.826 237.92L152.734 225.746C152.734 225.746 135.561 195.686 131.948 185.191C127.631 175.829 128.126 152.57 128.126 152.57L100.707 143.67C100.707 143.67 84.4999 138.17 81.0571 127.338C78.6739 119.841 80.4142 112.084 81.7121 108.018" stroke="black" stroke-width="2" stroke-linecap="round" stroke-linejoin="round"/>
<path d="M111.677 147.227L104.764 144.983L95.5399 141.428L91.1078 138.892L75.8089 138.882L75.5981 146.762L111.677 147.227Z" fill="#1D32A8"/>
<path d="M117.064 148.977L75.5517 148.442L73.1445 237.96H83.6478L88.7845 157.9L128.145 158.27L128.128 152.567L117.064 148.977Z" fill="#FF9933"/>
<path d="M139.718 132.004L121.659 117.892L144.305 128.399L139.718 132.004Z" fill="black"/>
<path d="M141.471 205.226C153.334 199.723 159.818 205.226 169.035 197.692C169.035 197.692 157.409 182.764 154.464 169.118" stroke="black" stroke-width="2" stroke-linecap="round" stroke-linejoin="round"/>
<path d="M148.896 132.786L168.226 152.161L183.794 116.684" stroke="black" stroke-width="2" stroke-linecap="round" stroke-linejoin="round"/>
<path d="M127.878 53.1842C127.989 51.8247 128.298 46.5499 128.404 42.9756" stroke="black" stroke-width="2" stroke-linecap="round" stroke-linejoin="round"/>
<path d="M115.026 43.0903C114.035 45.1715 111.334 50.5046 110.643 52.14" stroke="black" stroke-width="2" stroke-linecap="round" stroke-linejoin="round"/>
<path d="M121.788 17.8867C116.876 22.4621 110.828 27.9633 108.646 34.4707C105.791 43.0764 116.792 45.1336 122.376 41.2301" stroke="black" stroke-width="2" stroke-linecap="round" stroke-linejoin="round"/>
<path d="M123.393 38.6092C123.423 38.7995 123.461 38.9881 123.509 39.1732C125.944 48.5349 133.964 39.4252 135.477 34.6389C136.106 32.6658 136.946 30.2315 136.485 28.1744C135.772 24.8572 132.663 24.5212 130.817 21.9601C127.751 17.6778 130.06 12.5984 122.964 12.0515C112.215 11.2115 117.044 21.7081 122.671 26.2424C124.353 27.6001 124.353 29.6829 124.025 31.9458L125.429 32.2801L126.853 33.4767L127.127 34.2155L126.799 36.3566L126.095 37.3629L124.793 38.2852L123.393 38.6092Z" fill="black"/>
<path d="M123.056 31.9131C130.475 31.7211 126.702 40.9303 121.074 38.052" stroke="black" stroke-width="2" stroke-linecap="round" stroke-linejoin="round"/>
<path d="M122.242 237.96H62.3257" stroke="#DEDFE6" stroke-width="2" stroke-linecap="round" stroke-linejoin="round"/>
<path d="M53.5576 237.96H41.3277" stroke="#DEDFE6" stroke-width="2" stroke-linecap="round" stroke-linejoin="round"/>
<path d="M162.601 114.741L166.345 111.93" stroke="black" stroke-width="2" stroke-linecap="round" stroke-linejoin="round"/>
<path d="M62.2897 81.8258L6.37852 86.7166L1 25.2617L92.5171 17.2578L97.8956 78.711L67.7865 81.3441" stroke="#1D32A8" stroke-width="2" stroke-linecap="round" stroke-linejoin="round"/>
<path d="M62.2606 49.6938L92.5171 17.2578" stroke="#1D32A8" stroke-width="2" stroke-linecap="round" stroke-linejoin="round"/>
<path d="M1 25.2617L36.431 51.9531" stroke="#1D32A8" stroke-width="2" stroke-linecap="round" stroke-linejoin="round"/>
<path d="M6.37854 86.717L48.2494 38.2837L97.8956 78.7113" stroke="#1D32A8" stroke-width="2" stroke-linecap="round" stroke-linejoin="round"/>
<path d="M56.1534 82.3623C59.8602 83.7509 63.4196 84.9474 63.5482 84.7246C64.1363 83.8006 59.3459 78.4812 60.8409 77.1337C62.4372 75.6937 70.0995 83.9257 72.661 85.2269C80.0507 88.964 122.083 94.8406 122.083 94.8406L130.271 79.2646C130.271 79.2646 141.944 84.5549 147.864 84.932C150.342 85.1 140.096 106.847 131.95 110.038C125.819 112.431 115.029 110.038 108.814 108.61C94.2008 105.167 74.4253 97.568 68.126 94.5029C63.7111 92.3686 54.3291 87.0474 49.4478 82.9452" stroke="black" stroke-width="2" stroke-linecap="round" stroke-linejoin="round"/>
<path fill-rule="evenodd" clip-rule="evenodd" d="M12.1531 148.081C12.1531 138.76 19.7108 131.161 29.074 131.161C38.4371 131.161 45.9948 138.717 45.9948 148.081C45.9948 157.444 38.4371 165.001 29.074 165.001C19.7108 165.001 12.1531 157.442 12.1531 148.081Z" stroke="#FF9933" stroke-width="2" stroke-linecap="round" stroke-linejoin="round"/>
<path d="M2.58524 159.921L17.9167 173.16L21.7178 153.266L2.58524 159.921Z" fill="#1D32A8" stroke="#1D32A8" stroke-width="2" stroke-linecap="round" stroke-linejoin="round"/>
<ellipse cx="178.003" cy="34.3781" rx="6.69357" ry="6.69257" fill="#1D32A8"/>
<path d="M36.3487 51.9424L9.60015 31.9317L7.19122 6.45937L81.7566 0L84.0233 26.3638L62.2383 49.7139L48.1791 38.2282L36.3487 51.9424Z" fill="#FF9933"/>
<path d="M32.6008 33.4745C32.6008 33.4745 45.9965 29.4477 64.1998 30.8894" stroke="white" stroke-width="2" stroke-linecap="round" stroke-linejoin="round"/>
<path d="M26.0443 24.8073C26.0443 24.8073 31.3714 11.4496 38.485 12.605C43.6252 13.4399 40.5853 23.2868 40.5853 23.2868C40.5853 23.2868 46.4336 18.2588 48.9043 18.3462C51.375 18.4336 51.3664 23.489 51.3664 23.489C51.3664 23.489 54.6806 18.9188 57.2301 19.445C59.7796 19.973 59.015 23.9279 70.3549 24.3668" stroke="white" stroke-width="2" stroke-linecap="round" stroke-linejoin="round"/>
</svg>
