<svg width="240" height="120" viewBox="0 0 240 120" fill="none" xmlns="http://www.w3.org/2000/svg">
<mask id="mask0" mask-type="alpha" maskUnits="userSpaceOnUse" x="0" y="0" width="240" height="120">
<path d="M0 0H228C234.627 0 240 5.37258 240 12V120H0V0Z" fill="#FF9933"/>
</mask>
<g mask="url(#mask0)">
<path d="M0 0H228C234.627 0 240 5.37258 240 12V120H0V0Z" fill="#FF9933"/>
<path fill-rule="evenodd" clip-rule="evenodd" d="M107 -93.3025C107 -100.331 109.004 -105.538 113.017 -108.923C117.027 -112.309 122.665 -114 129.931 -114C134.442 -114 138.577 -113.413 142.337 -112.245C146.097 -111.071 148.601 -110.224 149.856 -109.707V2.37917C156.121 -5.95308 164.77 -13.0479 175.796 -18.9053C186.821 -24.7657 199.478 -27.6944 213.762 -27.6944C225.898 -27.6944 237.203 -25.7248 247.687 -21.7916L214.715 12.5207C212.449 12.2696 210.125 12.1425 207.749 12.1425C198.974 12.1425 191.021 13.7702 183.877 17.0226C176.736 20.2781 170.658 24.7679 165.647 30.4952C160.635 36.2225 156.686 42.9936 153.805 50.8054C150.925 58.6173 149.481 66.9465 149.481 75.7991C149.481 85.1722 150.925 93.7646 153.805 101.573C156.688 109.385 160.699 116.023 165.836 121.49C170.973 126.957 177.112 131.254 184.256 134.379C191.396 137.504 199.23 139.066 207.752 139.066C216.273 139.066 224.101 137.438 231.245 134.185C237.657 131.263 243.263 127.396 248.06 122.586L248.068 122.577C248.546 122.098 249.012 121.611 249.472 121.115L308.955 59.2224C309.651 64.5715 310 70.0961 310 75.7991C310 90.6393 307.495 104.439 302.481 117.194C297.469 129.953 290.453 140.887 281.431 150C272.406 159.113 261.695 166.271 249.289 171.481C236.883 176.688 223.288 179.293 208.503 179.293C193.718 179.293 180.12 176.951 167.714 172.264C155.308 167.575 144.594 160.547 135.575 151.177C126.55 141.801 119.534 130.089 114.522 116.026C109.51 101.967 107.003 85.4354 107.003 66.4292V-93.3025H107Z" fill="white" fill-opacity="0.2"/>
<path d="M303.756 19.7564C307.9 15.4511 309.709 10.9552 309.193 6.26569C308.675 1.57918 306.272 -2.9954 301.98 -7.455C299.166 -10.3776 296.208 -12.6831 293.1 -14.3743C289.993 -16.0656 287.922 -17.1396 286.886 -17.6025L215.859 56.1835L205.896 45.8333C201.758 41.531 197.422 39.6491 192.911 40.1846C188.397 40.7232 183.994 43.2222 179.704 47.6818C176.891 50.6045 174.671 53.6784 173.041 56.9066C171.416 60.1348 170.376 62.286 169.933 63.363L198.074 92.5985C207.868 102.773 223.845 102.773 233.641 92.5955L242.273 83.6279L303.753 19.7564H303.756Z" fill="white" fill-opacity="0.2"/>
<path fill-rule="evenodd" clip-rule="evenodd" d="M-131 -93.3025C-131 -100.331 -128.996 -105.538 -124.983 -108.923C-120.973 -112.309 -115.335 -114 -108.069 -114C-103.558 -114 -99.4227 -113.413 -95.663 -112.245C-91.9033 -111.071 -89.3988 -110.224 -88.1436 -109.707V2.37917C-81.8794 -5.95308 -73.2301 -13.0479 -62.2043 -18.9053C-51.1786 -24.7657 -38.5221 -27.6944 -24.2376 -27.6944C-12.1023 -27.6944 -0.797043 -25.7248 9.687 -21.7916L-23.2853 12.5207C-25.551 12.2696 -27.875 12.1425 -30.2514 12.1425C-39.0259 12.1425 -46.9792 13.7702 -54.1229 17.0226C-61.2637 20.2781 -67.3415 24.7679 -72.3535 30.4952C-77.3654 36.2225 -81.3144 42.9936 -84.1946 50.8054C-87.0748 58.6173 -88.5193 66.9465 -88.5193 75.7991C-88.5193 85.1722 -87.0748 93.7646 -84.1946 101.573C-81.3115 109.385 -77.3014 116.023 -72.1642 121.49C-67.027 126.957 -60.888 131.254 -53.7443 134.379C-46.6035 137.504 -38.7696 139.066 -30.2484 139.066C-21.7272 139.066 -13.8992 137.438 -6.75546 134.185C-0.342712 131.263 5.26332 127.396 10.0598 122.586L10.0685 122.577C10.5461 122.098 11.0121 121.611 11.4722 121.115L70.9545 59.2224C71.6505 64.5715 72 70.0961 72 75.7991C72 90.6393 69.4955 104.439 64.4806 117.194C59.4687 129.953 52.4531 140.887 43.431 150C34.406 159.113 23.6948 166.271 11.2887 171.481C-1.11739 176.688 -14.7117 179.293 -29.4971 179.293C-44.2825 179.293 -57.8797 176.951 -70.2858 172.264C-82.6919 167.575 -93.406 160.547 -102.425 151.177C-111.45 141.801 -118.466 130.089 -123.478 116.026C-128.49 101.967 -130.997 85.4354 -130.997 66.4292V-93.3025H-131Z" fill="white" fill-opacity="0.2"/>
<path d="M65.7561 19.7564C69.9003 15.4511 71.7087 10.9552 71.1933 6.26569C70.6749 1.57918 68.2723 -2.9954 63.9797 -7.455C61.1664 -10.3776 58.2076 -12.6831 55.1003 -14.3743C51.9929 -16.0656 49.9223 -17.1396 48.8856 -17.6025L-22.1408 56.1835L-32.1036 45.8333C-36.2418 41.531 -40.5782 39.6491 -45.0892 40.1846C-49.6032 40.7232 -54.0064 43.2222 -58.2962 47.6818C-61.1094 50.6045 -63.3285 53.6784 -64.9594 56.9066C-66.5844 60.1348 -67.624 62.286 -68.0667 63.363L-39.9258 92.5985C-30.132 102.773 -14.1555 102.773 -4.35873 92.5955L4.27313 83.6279L65.7532 19.7564H65.7561Z" fill="white" fill-opacity="0.2"/>
</g>
</svg>
