<svg width="1440" height="540" viewBox="0 0 1440 540" fill="none" xmlns="http://www.w3.org/2000/svg">
<path d="M351.214 164.541C351.214 153.908 354.139 146.217 359.989 141.467C365.839 136.721 374.066 134.344 384.666 134.344C391.25 134.344 397.279 135.2 402.763 136.911C408.244 138.618 411.899 139.852 413.733 140.615V290.452C413.733 316.279 419.579 335.936 431.283 349.418C442.978 362.9 460.897 369.644 485.023 369.644C509.152 369.644 527.067 362.9 538.767 349.418C550.462 335.936 556.316 316.283 556.316 290.452V164.541C556.316 153.908 559.241 146.217 565.091 141.467C570.937 136.721 578.986 134.344 589.221 134.344C596.17 134.344 602.385 135.2 607.866 136.911C613.351 138.618 617.006 139.852 618.835 140.615V304.693C618.835 324.063 615.635 341.44 609.241 356.823C602.844 372.206 593.704 385.212 581.822 395.845C569.939 406.483 555.773 414.549 539.323 420.058C522.868 425.566 504.775 428.319 485.031 428.319C465.291 428.319 447.194 425.566 430.743 420.058C414.289 414.549 400.216 406.479 388.516 395.845C376.821 385.212 367.677 372.206 361.097 356.823C354.517 341.44 351.222 324.063 351.222 304.693L351.214 164.541ZM719.795 469.343C721.259 470.106 724.456 471.526 729.393 473.617C734.326 475.707 740.541 477.798 748.034 479.884C755.531 481.97 764.301 483.774 774.358 485.296C784.411 486.817 795.291 487.576 806.991 487.576C819.421 487.576 831.669 486.151 843.733 483.302C855.794 480.453 866.581 475.324 876.086 467.919C885.591 460.514 893.36 450.163 899.392 436.87C905.425 423.573 908.439 406.483 908.439 385.596V378.76C900.033 389.014 887.875 398.699 871.972 407.815C856.07 416.931 836.967 421.491 814.667 421.491C794.192 421.491 775.369 417.976 758.184 410.951C741 403.925 726.197 394.05 713.767 381.327C701.337 368.603 691.649 353.317 684.704 335.464C677.755 317.611 674.282 297.861 674.282 276.211C674.282 254.561 678.031 234.622 685.523 216.394C693.02 198.161 703.349 182.399 716.509 169.106C729.669 155.813 745.483 145.37 763.945 137.771C782.407 130.176 802.606 126.375 824.541 126.375C845.381 126.375 864.662 129.603 882.394 136.06C900.127 142.516 915.571 152.391 928.735 165.684C941.895 178.976 952.135 195.877 959.445 216.389C966.759 236.902 970.414 261.017 970.414 288.745V370.786C970.414 400.789 966.483 426.524 958.625 447.984C950.763 469.445 939.887 487.011 925.993 500.683C912.102 514.359 895.559 524.327 876.366 530.594C857.174 536.861 836.241 539.997 813.575 539.997C798.586 539.997 784.967 539.141 772.72 537.434C760.472 535.723 749.596 533.633 740.091 531.167C730.586 528.697 722.724 526.228 716.509 523.762C710.294 521.293 705.726 519.299 702.801 517.782L719.795 469.343ZM823.989 366.794C836.419 366.794 847.754 364.519 857.989 359.958C868.224 355.398 876.999 349.136 884.313 341.157C891.623 333.179 897.384 323.684 901.587 312.671C905.79 301.654 907.891 289.504 907.891 276.206C907.891 263.293 905.79 251.235 901.587 240.033C897.384 228.826 891.623 219.141 884.313 210.978C876.999 202.814 868.224 196.45 857.989 191.894C847.749 187.338 836.419 185.058 823.989 185.058C811.194 185.058 799.588 187.431 789.166 192.181C778.748 196.931 769.88 203.48 762.569 211.838C755.255 220.195 749.592 229.88 745.567 240.893C741.547 251.906 739.535 263.681 739.535 276.215C739.535 303.564 747.215 325.496 762.569 342.017C777.92 358.538 798.399 366.794 823.989 366.794ZM1032.99 164.541C1032.99 153.908 1035.91 146.217 1041.76 141.467C1047.61 136.721 1055.84 134.344 1066.44 134.344C1073.02 134.344 1079.05 135.2 1084.53 136.911C1090.01 138.618 1093.67 139.852 1095.5 140.615V420.345H1032.99V164.541ZM1064.25 6.16238C1074.85 6.16238 1083.8 9.95967 1091.12 17.5587C1098.43 25.1532 1102.09 34.459 1102.09 45.4716C1102.09 56.4886 1098.43 65.7899 1091.12 73.3889C1083.8 80.9879 1074.85 84.7852 1064.25 84.7852C1053.64 84.7852 1044.69 80.9879 1037.37 73.3889C1030.06 65.7899 1026.4 56.4886 1026.4 45.4716C1026.4 34.459 1030.06 25.1532 1037.37 17.5587C1044.69 9.95967 1053.64 6.16238 1064.25 6.16238ZM1164.67 247.72C1164.67 228.729 1168.05 211.732 1174.81 196.728C1181.57 181.724 1190.9 169 1202.78 158.557C1214.66 148.113 1228.74 140.135 1245.01 134.626C1261.27 129.118 1279.1 126.366 1298.47 126.366C1317.85 126.366 1335.76 129.118 1352.22 134.626C1368.67 140.135 1382.84 148.109 1394.72 158.557C1406.6 169 1415.83 181.724 1422.41 196.728C1428.99 211.732 1432.28 228.729 1432.28 247.72V420.345H1369.77V264.241C1369.77 238.414 1363.74 218.758 1351.67 205.275C1339.61 191.793 1321.87 185.049 1298.47 185.049C1274.71 185.049 1256.89 191.793 1245.01 205.275C1233.12 218.758 1227.19 238.414 1227.19 264.241V420.345H1164.67V247.72Z" fill="#F9F9FD"/>
<path fill-rule="evenodd" clip-rule="evenodd" d="M0 30.171C0 19.9258 2.92071 12.3357 8.7706 7.40052C14.6162 2.46537 22.8349 0 33.4267 0C40.0025 0 46.0307 0.855611 51.5113 2.558C56.9918 4.2692 60.6427 5.50408 62.4724 6.25825V169.647C71.6038 157.501 84.212 147.159 100.284 138.621C116.357 130.078 134.806 125.809 155.629 125.809C173.319 125.809 189.799 128.68 205.081 134.413L157.017 184.431C153.714 184.065 150.327 183.88 146.863 183.88C134.072 183.88 122.478 186.252 112.065 190.993C101.656 195.739 92.7958 202.284 85.4898 210.633C78.1838 218.981 72.4274 228.852 68.2289 240.239C64.0303 251.627 61.9247 263.768 61.9247 276.673C61.9247 290.336 64.0303 302.861 68.2289 314.244C72.4316 325.632 78.2772 335.308 85.7658 343.277C93.2543 351.247 102.203 357.51 112.617 362.065C123.026 366.621 134.445 368.897 146.867 368.897C159.288 368.897 170.699 366.524 181.113 361.783C190.461 357.523 198.633 351.886 205.625 344.874L205.637 344.861C206.334 344.164 207.013 343.454 207.684 342.731L294.392 252.509C295.406 260.306 295.916 268.359 295.916 276.673C295.916 298.305 292.265 318.421 284.955 337.015C277.649 355.613 267.422 371.552 254.27 384.836C241.115 398.12 225.501 408.555 207.416 416.149C189.332 423.739 169.515 427.537 147.962 427.537C126.409 427.537 106.588 424.123 88.5039 417.292C70.4194 410.456 54.8013 400.21 41.6539 386.552C28.498 372.884 18.2713 355.812 10.9654 335.312C3.65937 314.818 0.00424934 290.72 0.00424934 263.014V30.171H0Z" fill="#F9F9FD"/>
<path d="M286.814 194.98C292.855 188.705 295.491 182.151 294.739 175.315C293.984 168.483 290.481 161.815 284.224 155.314C280.123 151.054 275.81 147.693 271.28 145.228C266.751 142.762 263.732 141.197 262.221 140.522L158.685 248.081L144.162 232.993C138.13 226.721 131.809 223.978 125.233 224.759C118.653 225.544 112.234 229.187 105.981 235.688C101.88 239.948 98.6452 244.429 96.2679 249.135C93.8991 253.841 92.3836 256.976 91.7383 258.546L132.76 301.163C147.036 315.995 170.325 315.995 184.606 301.159L197.189 288.087L286.809 194.98H286.814Z" fill="#F9F9FD"/>
</svg>
