<svg width="768" height="12" viewBox="0 0 768 12" fill="none" xmlns="http://www.w3.org/2000/svg">
<path d="M0.957031 11H4.68262C6.78125 11 8.02539 9.96777 8.02539 8.23145V8.21777C8.02539 6.91211 7.16406 5.95508 5.74219 5.79102V5.76367C6.76074 5.62012 7.52637 4.62891 7.52637 3.61035V3.59668C7.52637 2.12012 6.38477 1.13574 4.69629 1.13574H0.957031V11ZM4.41602 2.22266C5.60547 2.22266 6.28223 2.75586 6.28223 3.72656V3.74023C6.28223 4.80664 5.48926 5.3877 4.0332 5.3877H2.1875V2.22266H4.41602ZM4.38184 6.44727C5.9541 6.44727 6.76074 7.02832 6.76074 8.16992V8.18359C6.76074 9.31836 5.97461 9.91309 4.49805 9.91309H2.1875V6.44727H4.38184ZM63.7438 11.1641C66.191 11.1641 67.6539 9.6875 67.6539 7.54102V1.13574H66.4234V7.45898C66.4234 8.97656 65.4527 10.0293 63.7438 10.0293C62.0348 10.0293 61.0504 8.97656 61.0504 7.45898V1.13574H59.8199V7.54102C59.8199 9.6875 61.2965 11.1641 63.7438 11.1641ZM124.104 11.1641C126.736 11.1641 128.287 9.58496 128.287 6.91895V5.98242H124.275V7.0625H127.057V7.24023C127.057 8.89453 125.854 10.0293 124.104 10.0293C122.094 10.0293 120.843 8.49805 120.843 6.0166V6.00977C120.843 3.57617 122.073 2.10645 124.104 2.10645C125.491 2.10645 126.448 2.82422 126.906 4.0752L126.934 4.15039H128.226L128.192 4.02051C127.734 2.27734 126.373 0.97168 124.104 0.97168C121.349 0.97168 119.585 2.92676 119.585 6.00977V6.0166C119.585 9.16113 121.349 11.1641 124.104 11.1641ZM180.266 11H181.497V1.13574H180.266V11ZM233.811 11H235.028V3.21387H235.062L240.49 11H241.686V1.13574H240.469V8.92188H240.435L235.007 1.13574H233.811V11ZM294 11H295.217V3.21387H295.251L300.679 11H301.875V1.13574H300.658V8.92188H300.624L295.196 1.13574H294V11ZM354.189 11H360.3V9.89258H355.42V6.50195H360.047V5.4082H355.42V2.24316H360.3V1.13574H354.189V11ZM412.327 11H413.544V3.21387H413.578L419.006 11H420.202V1.13574H418.986V8.92188H418.951L413.524 1.13574H412.327V11ZM525.788 11H529.513C531.612 11 532.856 9.96777 532.856 8.23145V8.21777C532.856 6.91211 531.995 5.95508 530.573 5.79102V5.76367C531.591 5.62012 532.357 4.62891 532.357 3.61035V3.59668C532.357 2.12012 531.215 1.13574 529.527 1.13574H525.788V11ZM529.247 2.22266C530.436 2.22266 531.113 2.75586 531.113 3.72656V3.74023C531.113 4.80664 530.32 5.3877 528.864 5.3877H527.018V2.22266H529.247ZM529.212 6.44727C530.785 6.44727 531.591 7.02832 531.591 8.16992V8.18359C531.591 9.31836 530.805 9.91309 529.329 9.91309H527.018V6.44727H529.212ZM583.864 11H585.156L586.147 8.17676H590.071L591.062 11H592.354L588.718 1.13574H587.501L583.864 11ZM588.096 2.6123H588.123L589.709 7.13086H586.51L588.096 2.6123ZM647.109 11.1641C649.365 11.1641 650.753 10.0566 650.753 8.30664V8.2998C650.753 6.7959 649.905 5.97559 647.881 5.53125L646.788 5.29199C645.503 5.01172 644.908 4.50586 644.908 3.69922V3.69238C644.908 2.74219 645.769 2.11328 647.089 2.10645C648.339 2.10645 649.18 2.70117 649.331 3.70605L649.344 3.80176H650.575L650.568 3.69922C650.459 2.08594 649.05 0.97168 647.123 0.97168C645.092 0.97168 643.657 2.10645 643.65 3.72656V3.7334C643.65 5.17578 644.552 6.04395 646.48 6.46777L647.574 6.70703C648.927 7.00781 649.495 7.49316 649.495 8.36133V8.36816C649.495 9.38672 648.599 10.0293 647.177 10.0293C645.749 10.0293 644.792 9.4209 644.648 8.42969L644.634 8.33398H643.404L643.411 8.42969C643.534 10.1182 644.976 11.1641 647.109 11.1641ZM704.817 11H706.047V2.24316H709.157V1.13574H701.706V2.24316H704.817V11ZM758.703 11H759.995L760.986 8.17676H764.91L765.901 11H767.193L763.556 1.13574H762.34L758.703 11ZM762.934 2.6123H762.962L764.548 7.13086H761.348L762.934 2.6123Z" fill="#8D8F9B"/>
</svg>
