<svg width="32" height="32" viewBox="0 0 32 32" fill="none" xmlns="http://www.w3.org/2000/svg">
<g clip-path="url(#clip0)">
<path fill-rule="evenodd" clip-rule="evenodd" d="M4.72938 32H27.2706C29.8754 32 32 29.8754 32 27.2706V4.72938C32 2.12455 29.8754 0 27.2706 0H4.72938C2.12455 0 0 2.12455 0 4.72938V27.2706C0 29.8754 2.12455 32 4.72938 32Z" fill="#1D32A8"/>
<path fill-rule="evenodd" clip-rule="evenodd" d="M7.99997 5.40972C7.99997 4.87605 8.1581 4.48061 8.47442 4.22367C8.79075 3.96668 9.23542 3.83821 9.80873 3.83821C10.1645 3.83821 10.4908 3.88274 10.7872 3.97161C11.0838 4.06061 11.2814 4.12487 11.3802 4.16428V12.6742C11.8745 12.0417 12.5565 11.5031 13.4262 11.0583C14.2959 10.6135 15.2943 10.3911 16.421 10.3911C17.3781 10.3911 18.2701 10.5406 19.0969 10.8393L16.4961 13.4443C16.3173 13.4252 16.134 13.4155 15.9467 13.4155C15.2547 13.4155 14.6271 13.5391 14.0638 13.7862C13.5004 14.0333 13.021 14.3743 12.6257 14.8091C12.2303 15.2441 11.919 15.7581 11.6917 16.3511C11.4644 16.9441 11.3506 17.5766 11.3506 18.2487C11.3506 18.9604 11.4644 19.6126 11.6917 20.2056C11.919 20.7987 12.2353 21.3028 12.6405 21.7179C13.0457 22.1331 13.5301 22.4592 14.0934 22.6964C14.6568 22.9336 15.2746 23.0522 15.9467 23.0522C16.6188 23.0522 17.2364 22.9286 17.7998 22.6816C18.3056 22.4598 18.7479 22.1662 19.1262 21.8009L19.1268 21.8003C19.1643 21.7639 19.2013 21.727 19.2375 21.6893L23.9292 16.9901C23.9843 17.3963 24.0117 17.8158 24.0117 18.2487C24.0117 19.3756 23.814 20.4232 23.4186 21.3917C23.0234 22.3603 22.4698 23.1906 21.7583 23.8824C21.0466 24.5742 20.2015 25.1178 19.223 25.5133C18.2446 25.9087 17.1722 26.1063 16.0059 26.1063C14.8396 26.1063 13.7672 25.9284 12.7887 25.5727C11.8102 25.2167 10.9652 24.6831 10.2536 23.9715C9.54193 23.2598 8.98847 22.3703 8.59314 21.3029C8.19793 20.2354 8.00009 18.9802 8.00009 17.5371V5.40977L7.99997 5.40972Z" fill="white"/>
<path d="M23.5196 13.9939C23.8465 13.667 23.9893 13.3256 23.9485 12.9696C23.9076 12.6136 23.718 12.2663 23.3795 11.9278C23.1577 11.706 22.9243 11.531 22.6791 11.4024C22.434 11.2741 22.2707 11.1924 22.1888 11.1574L16.5865 16.7594L15.8009 15.9738C15.4743 15.6471 15.1323 15.504 14.7767 15.5448C14.4207 15.5856 14.0733 15.7754 13.7349 16.1139C13.5131 16.3357 13.3379 16.5691 13.2095 16.8143C13.0811 17.0593 12.9993 17.2227 12.9643 17.3046L15.184 19.5242C15.9566 20.2968 17.2168 20.2968 17.9893 19.5241L18.6703 18.8431L23.5196 13.9939H23.5196Z" fill="#FF9933"/>
</g>
<defs>
<clipPath id="clip0">
<rect width="32" height="32" fill="white"/>
</clipPath>
</defs>
</svg>
