<svg width="21" height="30" viewBox="0 0 21 30" fill="none" xmlns="http://www.w3.org/2000/svg">
<path fill-rule="evenodd" clip-rule="evenodd" d="M0 2.11708C0 1.39818 0.207272 0.865587 0.622415 0.51929C1.03726 0.172994 1.62051 0 2.37216 0C2.83882 0 3.26662 0.0600377 3.65555 0.179493C4.04449 0.299567 4.30358 0.386218 4.43342 0.439138V11.9041C5.08144 11.0518 5.9762 10.3261 7.11679 9.72694C8.25738 9.1275 9.56668 8.82794 11.0444 8.82794C12.2998 8.82794 13.4693 9.0294 14.5538 9.43171L11.1429 12.9414C10.9085 12.9157 10.6681 12.9027 10.4223 12.9027C9.51456 12.9027 8.69181 13.0692 7.9528 13.4019C7.2141 13.7349 6.58536 14.1941 6.06688 14.78C5.5484 15.3658 5.13989 16.0584 4.84194 16.8574C4.54399 17.6565 4.39456 18.5085 4.39456 19.414C4.39456 20.3727 4.54399 21.2516 4.84194 22.0503C5.14019 22.8494 5.55503 23.5284 6.08646 24.0876C6.6179 24.6468 7.25296 25.0862 7.99197 25.4059C8.73067 25.7256 9.54107 25.8853 10.4226 25.8853C11.3041 25.8853 12.1139 25.7188 12.8529 25.3861C13.5163 25.0872 14.0962 24.6917 14.5924 24.1996L14.5933 24.1987C14.6427 24.1498 14.6909 24.1 14.7385 24.0492L20.8918 17.7184C20.9638 18.2655 21 18.8306 21 19.414C21 20.9319 20.7409 22.3434 20.2221 23.6481C19.7037 24.9532 18.9779 26.0716 18.0446 27.0037C17.111 27.9358 16.0029 28.668 14.7195 29.2009C13.4361 29.7335 12.0298 30 10.5003 30C8.97078 30 7.56417 29.7605 6.28078 29.2811C4.99739 28.8014 3.88903 28.0825 2.95602 27.1241C2.02239 26.1651 1.29665 24.9671 0.778169 23.5287C0.259691 22.0906 0.00030156 20.3996 0.00030156 18.4555V2.11708H0Z" fill="#1D32A8"/>
<path d="M20.3541 13.6817C20.7828 13.2413 20.9699 12.7814 20.9165 12.3018C20.8629 11.8224 20.6144 11.3545 20.1703 10.8983C19.8793 10.5994 19.5732 10.3635 19.2517 10.1906C18.9303 10.0176 18.7161 9.9077 18.6088 9.86035L11.2613 17.4077L10.2307 16.349C9.80256 15.9089 9.35397 15.7164 8.88731 15.7712C8.42035 15.8263 7.96484 16.0819 7.52107 16.5381C7.23005 16.837 7.00049 17.1515 6.83178 17.4817C6.66367 17.8119 6.55612 18.0319 6.51033 18.1421L9.42146 21.1325C10.4346 22.1732 12.0874 22.1732 13.1008 21.1322L13.9938 20.2149L20.3538 13.6817H20.3541Z" fill="#FF9933"/>
</svg>
