<svg width="116" height="20" viewBox="0 0 116 20" fill="none" xmlns="http://www.w3.org/2000/svg">
<path d="M12.8147 6.09325C12.8147 5.69942 12.9214 5.41455 13.1349 5.23862C13.3483 5.06286 13.6485 4.97482 14.0353 4.97482C14.2755 4.97482 14.4955 5.00651 14.6956 5.06989C14.8956 5.1331 15.0289 5.17884 15.0958 5.2071V10.7566C15.0958 11.7132 15.3091 12.4412 15.7362 12.9406C16.1629 13.4399 16.8167 13.6897 17.697 13.6897C18.5774 13.6897 19.2311 13.4399 19.6579 12.9406C20.0847 12.4412 20.2983 11.7133 20.2983 10.7566V6.09325C20.2983 5.69942 20.405 5.41455 20.6184 5.23862C20.8317 5.06286 21.1254 4.97482 21.4989 4.97482C21.7524 4.97482 21.9792 5.00651 22.1792 5.06989C22.3793 5.1331 22.5126 5.17884 22.5794 5.2071V11.2841C22.5794 12.0015 22.4626 12.6451 22.2293 13.2148C21.9959 13.7846 21.6624 14.2663 21.2289 14.6601C20.7953 15.0541 20.2784 15.3529 19.6782 15.5569C19.0779 15.7609 18.4177 15.8628 17.6973 15.8628C16.977 15.8628 16.3167 15.7609 15.7165 15.5569C15.1161 15.3529 14.6027 15.0539 14.1758 14.6601C13.749 14.2663 13.4154 13.7846 13.1753 13.2148C12.9352 12.6451 12.815 12.0015 12.815 11.2841V6.09325H12.8147ZM26.2631 17.3823C26.3165 17.4105 26.4332 17.4631 26.6133 17.5406C26.7933 17.618 27.0201 17.6954 27.2935 17.7727C27.567 17.8499 27.887 17.9168 28.254 17.9731C28.6207 18.0295 29.0177 18.0576 29.4446 18.0576C29.8982 18.0576 30.345 18.0048 30.7852 17.8993C31.2253 17.7938 31.6189 17.6038 31.9657 17.3295C32.3125 17.0553 32.5959 16.6719 32.8161 16.1796C33.0362 15.6871 33.1461 15.0541 33.1461 14.2805V14.0273C32.8394 14.4071 32.3958 14.7658 31.8156 15.1034C31.2354 15.4411 30.5383 15.61 29.7247 15.61C28.9776 15.61 28.2908 15.4798 27.6638 15.2196C27.0368 14.9594 26.4967 14.5936 26.0431 14.1224C25.5896 13.6511 25.2361 13.085 24.9827 12.4237C24.7292 11.7625 24.6025 11.0311 24.6025 10.2292C24.6025 9.42732 24.7392 8.68883 25.0126 8.01372C25.2862 7.33844 25.663 6.75464 26.1432 6.26232C26.6234 5.76999 27.2004 5.38319 27.874 5.10174C28.5476 4.82046 29.2846 4.67965 30.085 4.67965C30.8453 4.67965 31.5489 4.79922 32.1959 5.03836C32.8429 5.2775 33.4064 5.64323 33.8867 6.13556C34.3669 6.62789 34.7405 7.25383 35.0072 8.01355C35.2741 8.77328 35.4074 9.66646 35.4074 10.6934V13.732C35.4074 14.8432 35.264 15.7964 34.9773 16.5912C34.6904 17.386 34.2936 18.0367 33.7866 18.543C33.2798 19.0496 32.6762 19.4187 31.9759 19.6508C31.2756 19.883 30.5118 19.9991 29.6849 19.9991C29.1379 19.9991 28.641 19.9674 28.1942 19.9042C27.7473 19.8408 27.3505 19.7634 27.0036 19.6721C26.6568 19.5806 26.37 19.4891 26.1432 19.3978C25.9164 19.3063 25.7498 19.2325 25.6431 19.1763L26.2633 17.3826L26.2631 17.3823ZM30.0648 13.5842C30.5184 13.5842 30.9319 13.4999 31.3054 13.331C31.6788 13.1621 31.999 12.9301 32.2659 12.6346C32.5326 12.3391 32.7428 11.9874 32.8961 11.5796C33.0495 11.1715 33.1262 10.7215 33.1262 10.229C33.1262 9.75074 33.0495 9.30415 32.8961 8.88925C32.7428 8.47419 32.5326 8.11548 32.2659 7.81313C31.999 7.51077 31.6788 7.27506 31.3054 7.10633C30.9318 6.93759 30.5184 6.85314 30.0648 6.85314C29.598 6.85314 29.1745 6.94102 28.7942 7.11695C28.4141 7.29287 28.0905 7.53544 27.8238 7.84498C27.5569 8.15452 27.3503 8.51323 27.2035 8.92111C27.0568 9.32898 26.9834 9.76512 26.9834 10.2293C26.9834 11.2423 27.2636 12.0546 27.8238 12.6665C28.3839 13.2784 29.1311 13.5845 30.0648 13.5845V13.5842ZM37.6906 6.09325C37.6906 5.69942 37.7973 5.41455 38.0106 5.23862C38.224 5.06286 38.5242 4.97482 38.911 4.97482C39.1511 4.97482 39.3712 5.00651 39.5713 5.06989C39.7713 5.1331 39.9048 5.17884 39.9715 5.2071V15.5675H37.6906V6.09325ZM38.8311 0.22732C39.218 0.22732 39.5447 0.367961 39.8115 0.649407C40.0784 0.93069 40.2118 1.27535 40.2118 1.68323C40.2118 2.09127 40.0784 2.43576 39.8115 2.71721C39.5447 2.99866 39.218 3.1393 38.8311 3.1393C38.4441 3.1393 38.1175 2.99866 37.8506 2.71721C37.5839 2.43576 37.4503 2.09127 37.4503 1.68323C37.4503 1.27535 37.5839 0.93069 37.8506 0.649407C38.1175 0.367961 38.4441 0.22732 38.8311 0.22732ZM42.4951 9.17397C42.4951 8.4706 42.6185 7.84106 42.8653 7.28536C43.112 6.72965 43.4522 6.2584 43.8857 5.87159C44.3193 5.48479 44.8329 5.18929 45.4265 4.98527C46.02 4.78126 46.6704 4.67933 47.3774 4.67933C48.0844 4.67933 48.7379 4.78126 49.3383 4.98527C49.9385 5.18929 50.4554 5.48462 50.889 5.87159C51.3225 6.2584 51.6594 6.72965 51.8995 7.28536C52.1396 7.84106 52.2596 8.4706 52.2596 9.17397V15.5675H49.9786V9.78586C49.9786 8.82931 49.7585 8.10127 49.3183 7.60192C48.8781 7.10257 48.2311 6.85281 47.3774 6.85281C46.5103 6.85281 45.86 7.10257 45.4265 7.60192C44.9929 8.10127 44.7762 8.82931 44.7762 9.78586V15.5675H42.4951V9.17397ZM59.6852 8.75188C59.6852 8.07661 59.7986 7.48578 60.0254 6.97941C60.2522 6.47303 60.5623 6.05095 60.9558 5.71331C61.3493 5.37567 61.8129 5.11906 62.3465 4.94313C62.8801 4.76721 63.4603 4.67933 64.0872 4.67933C64.9142 4.67933 65.6546 4.8412 66.3081 5.16463C66.9617 5.48805 67.482 5.9665 67.8688 6.59946C68.2557 5.96633 68.7692 5.48805 69.4094 5.16463C70.0497 4.8412 70.7766 4.67933 71.5904 4.67933C72.2041 4.67933 72.7777 4.76378 73.3113 4.93268C73.8449 5.10141 74.3051 5.35476 74.6919 5.69224C75.0788 6.02987 75.3856 6.45196 75.6124 6.95834C75.8392 7.46487 75.9526 8.0557 75.9526 8.73081V15.5675H73.6716V9.55375C73.6716 8.58314 73.4648 7.89023 73.0514 7.47533C72.6378 7.06026 72.0776 6.85281 71.3706 6.85281C70.6903 6.85281 70.12 7.08493 69.6598 7.54916C69.1996 8.01339 68.9695 8.76593 68.9695 9.80693V15.5675H66.6885V9.80693C66.6885 8.76593 66.4583 8.01339 65.9981 7.54916C65.5379 7.08493 64.9676 6.85281 64.2873 6.85281C63.5937 6.85281 63.0334 7.06386 62.6066 7.48594C62.1797 7.90803 61.9662 8.60421 61.9662 9.57482V15.5675H59.6851V8.75204L59.6852 8.75188ZM87.3001 14.7867C87.1934 14.8571 87.0267 14.9556 86.8 15.0822C86.5732 15.209 86.2897 15.3284 85.9496 15.4409C85.6094 15.5535 85.2158 15.6518 84.7691 15.7364C84.3223 15.8207 83.832 15.863 83.2984 15.863C82.5514 15.863 81.8543 15.7434 81.2075 15.5043C80.5605 15.2652 79.9936 14.91 79.5068 14.4388C79.0199 13.9675 78.6363 13.3908 78.3562 12.7085C78.076 12.0262 77.9361 11.2419 77.9361 10.3558C77.9361 9.5116 78.0727 8.74159 78.3463 8.04524C78.6198 7.3489 78.9999 6.75105 79.4868 6.25154C79.9736 5.75219 80.5472 5.36538 81.2075 5.09096C81.8678 4.8167 82.5915 4.67949 83.3785 4.67949C84.0721 4.67949 84.6858 4.77456 85.2194 4.96437C85.753 5.15434 86.2031 5.40753 86.5701 5.72409C86.9369 6.04066 87.2137 6.40982 87.4005 6.83191C87.5871 7.25399 87.6805 7.70418 87.6805 8.18245C87.6805 8.67478 87.5938 9.12137 87.4205 9.52222C87.247 9.92324 86.9403 10.2679 86.5001 10.5562C86.0599 10.8445 85.4663 11.0696 84.7193 11.2315C83.9722 11.3934 83.0252 11.4742 81.878 11.4742C81.6113 11.4742 81.3611 11.4706 81.1277 11.4636C80.8943 11.4566 80.6441 11.446 80.3773 11.4319C80.484 12.1493 80.8142 12.7297 81.3678 13.1727C81.9214 13.6158 82.7118 13.8373 83.7389 13.8373C84.0857 13.8373 84.4058 13.8092 84.6993 13.7531C84.9928 13.6967 85.2563 13.6265 85.4897 13.542C85.7231 13.4577 85.9232 13.3731 86.0899 13.2888C86.2567 13.2045 86.38 13.1412 86.4601 13.0989L87.3006 14.7869L87.3001 14.7867ZM80.2769 9.78586C80.5837 9.79991 80.8773 9.80693 81.1573 9.80693C81.4375 9.80693 81.7176 9.80693 81.9976 9.80693C82.7313 9.80693 83.3249 9.75777 83.7784 9.65927C84.232 9.56093 84.5854 9.43434 84.8388 9.27949C85.0924 9.1248 85.2591 8.94888 85.3391 8.75204C85.4191 8.55521 85.4592 8.35119 85.4592 8.14015C85.4592 7.60551 85.2558 7.20466 84.8489 6.93743C84.4422 6.67003 83.9386 6.53641 83.3384 6.53641C82.8447 6.53641 82.4113 6.62789 82.0377 6.81067C81.6643 6.99362 81.3508 7.23635 81.0974 7.53871C80.844 7.84122 80.6471 8.18931 80.5072 8.58331C80.3672 8.9773 80.2904 9.37815 80.277 9.78603L80.2769 9.78586ZM97.6069 1.13438C97.6069 0.754602 97.7104 0.473156 97.917 0.290372C98.1238 0.107424 98.4206 0.0161133 98.8074 0.0161133C99.0476 0.0161133 99.2675 0.0478024 99.4677 0.111018C99.6678 0.174396 99.8012 0.220133 99.8679 0.248228V9.76479C99.8679 10.7917 99.7313 11.6849 99.4578 12.4447C99.1844 13.2044 98.8075 13.8373 98.3273 14.3437C97.847 14.8501 97.2803 15.2299 96.6264 15.4832C95.9728 15.7364 95.2592 15.863 94.4855 15.863C93.6985 15.863 92.9748 15.7224 92.3145 15.4409C91.6542 15.1595 91.0839 14.7727 90.6037 14.2803C90.1235 13.788 89.7467 13.1972 89.4731 12.5079C89.1997 11.8185 89.063 11.073 89.063 10.2712C89.063 9.45525 89.1931 8.70631 89.4531 8.02401C89.7134 7.34171 90.0735 6.75089 90.5337 6.25154C90.9939 5.75219 91.5341 5.36538 92.1545 5.09096C92.7747 4.8167 93.4517 4.67949 94.1853 4.67949C94.959 4.67949 95.6393 4.83777 96.2262 5.15434C96.8132 5.4709 97.2733 5.85411 97.6068 6.3043V1.13455L97.6069 1.13438ZM97.6069 10.271C97.6069 9.79272 97.5303 9.34254 97.3769 8.92062C97.2236 8.49853 97.0134 8.1328 96.7466 7.82326C96.4798 7.51371 96.1563 7.27114 95.7762 7.09522C95.3961 6.91946 94.9791 6.83142 94.5256 6.83142C94.0588 6.83142 93.6385 6.9193 93.2651 7.09522C92.8916 7.27114 92.5682 7.51028 92.2947 7.81264C92.0213 8.11516 91.8112 8.47746 91.6644 8.89938C91.5177 9.32147 91.4443 9.77851 91.4443 10.2708C91.4443 10.7632 91.5177 11.2168 91.6644 11.6318C91.8112 12.0467 92.0213 12.4056 92.2947 12.708C92.5682 13.0105 92.8916 13.2496 93.2651 13.4254C93.6387 13.6011 94.0588 13.6892 94.5256 13.6892C94.9791 13.6892 95.3961 13.6049 95.7762 13.436C96.1563 13.2671 96.4799 13.0351 96.7466 12.7397C97.0134 12.4442 97.2236 12.0855 97.3769 11.6635C97.5303 11.2414 97.6069 10.7774 97.6069 10.2708V10.271ZM102.151 6.09293C102.151 5.6991 102.258 5.41422 102.471 5.2383C102.685 5.06254 102.985 4.97449 103.372 4.97449C103.612 4.97449 103.832 5.00618 104.032 5.06956C104.232 5.13278 104.366 5.17851 104.432 5.20677V15.5672H102.151V6.09293ZM103.292 0.226994C103.679 0.226994 104.005 0.367635 104.272 0.649081C104.539 0.930363 104.673 1.27502 104.673 1.6829C104.673 2.09094 104.539 2.43544 104.272 2.71688C104.005 2.99833 103.679 3.13897 103.292 3.13897C102.905 3.13897 102.578 2.99833 102.311 2.71688C102.045 2.43544 101.911 2.09094 101.911 1.6829C101.911 1.27502 102.045 0.930363 102.311 0.649081C102.578 0.367635 102.905 0.226994 103.292 0.226994ZM116 15.525C115.866 15.5533 115.656 15.5848 115.37 15.6201C115.083 15.6552 114.746 15.6903 114.359 15.7256C113.972 15.7607 113.539 15.7924 113.059 15.8205C112.578 15.8488 112.078 15.8628 111.558 15.8628C110.518 15.8628 109.667 15.7679 109.007 15.578C108.347 15.388 107.826 15.1348 107.446 14.8182C107.066 14.5017 106.806 14.1359 106.666 13.721C106.526 13.3061 106.456 12.8805 106.456 12.4445C106.456 11.8677 106.539 11.3613 106.706 10.9252C106.873 10.4891 107.146 10.1233 107.526 9.82784C107.906 9.53235 108.403 9.31085 109.017 9.16319C109.63 9.01552 110.377 8.94152 111.258 8.94152C111.765 8.94152 112.245 8.95917 112.698 8.99429C113.152 9.02941 113.492 9.06109 113.719 9.08919C113.719 8.59686 113.642 8.18882 113.489 7.8654C113.336 7.54197 113.125 7.28862 112.859 7.10567C112.592 6.92273 112.272 6.79613 111.898 6.72589C111.524 6.65566 111.111 6.62037 110.658 6.62037C109.897 6.62037 109.287 6.71185 108.827 6.89463C108.367 7.07758 108.063 7.2321 107.916 7.35886C107.836 7.28846 107.726 7.15484 107.586 6.95785C107.446 6.76101 107.376 6.52171 107.376 6.24043C107.376 6.0436 107.426 5.85003 107.526 5.66022C107.626 5.47041 107.803 5.30151 108.056 5.15385C108.31 5.00618 108.65 4.89004 109.077 4.80559C109.503 4.72131 110.044 4.679 110.697 4.679C111.484 4.679 112.201 4.75986 112.848 4.92173C113.495 5.08345 114.052 5.34023 114.519 5.69191C114.986 6.0436 115.349 6.50783 115.61 7.0846C115.87 7.66138 116 8.35773 116 9.17364V15.5249L116 15.525ZM113.739 10.8406C113.605 10.8125 113.355 10.7704 112.989 10.714C112.622 10.6576 112.071 10.6297 111.338 10.6297C110.431 10.6297 109.77 10.7738 109.357 11.0623C108.943 11.3506 108.737 11.8043 108.737 12.4233C108.737 12.6764 108.78 12.9086 108.867 13.1196C108.954 13.3306 109.104 13.51 109.317 13.6577C109.531 13.8053 109.821 13.9179 110.188 13.9953C110.554 14.0727 111.011 14.1113 111.558 14.1113C112.172 14.1113 112.659 14.0866 113.019 14.0374C113.379 13.9881 113.619 13.9496 113.739 13.9215V10.8408L113.739 10.8406Z" fill="#8D8F9B"/>
<path fill-rule="evenodd" clip-rule="evenodd" d="M0 1.11745C0 0.737999 0.106568 0.45688 0.320012 0.274095C0.533301 0.0913106 0.833176 0 1.21964 0C1.45957 0 1.67952 0.0316895 1.87949 0.0947412C2.07946 0.15812 2.21267 0.203856 2.27942 0.231789V6.28328C2.6126 5.83343 3.07264 5.45038 3.65907 5.13414C4.2455 4.81774 4.91867 4.65962 5.67842 4.65962C6.32387 4.65962 6.92517 4.76596 7.48279 4.97831L5.72907 6.83082C5.60857 6.81726 5.48496 6.8104 5.35857 6.8104C4.89187 6.8104 4.46885 6.89828 4.0889 7.07388C3.7091 7.24964 3.38583 7.49205 3.11926 7.80126C2.85269 8.11048 2.64265 8.47605 2.48946 8.89781C2.33627 9.31957 2.25944 9.76926 2.25944 10.2472C2.25944 10.7533 2.33627 11.2172 2.48946 11.6388C2.64281 12.0605 2.8561 12.4189 3.12933 12.7141C3.40256 13.0092 3.72908 13.2412 4.10904 13.4099C4.48884 13.5787 4.9055 13.6629 5.35872 13.6629C5.81194 13.6629 6.2283 13.5751 6.60825 13.3995C6.94933 13.2417 7.2475 13.0329 7.50261 12.7732L7.50308 12.7727C7.52848 12.7469 7.55326 12.7206 7.57774 12.6938L10.7415 9.35224C10.7785 9.64103 10.7971 9.9393 10.7971 10.2472C10.7971 11.0484 10.6639 11.7934 10.3971 12.4821C10.1305 13.1709 9.75741 13.7613 9.27755 14.2533C8.79753 14.7453 8.22783 15.1318 7.56798 15.413C6.90813 15.6942 6.18508 15.8348 5.39868 15.8348C4.61229 15.8348 3.88909 15.7084 3.22924 15.4553C2.56939 15.2022 1.99953 14.8227 1.51982 14.3168C1.03981 13.8106 0.666665 13.1783 0.400092 12.4191C0.133519 11.66 0.000155046 10.7675 0.000155046 9.74133V1.11745H0Z" fill="#8D8F9B"/>
<path d="M10.465 7.22159C10.6854 6.98915 10.7816 6.74642 10.7541 6.49323C10.7266 6.24021 10.5988 5.99323 10.3705 5.75245C10.2208 5.59466 10.0635 5.47019 9.8982 5.37888C9.73293 5.28757 9.6228 5.22958 9.56766 5.20459L5.78994 9.18828L5.26005 8.62947C5.03994 8.3972 4.80931 8.29559 4.56937 8.32451C4.32929 8.35358 4.09509 8.48851 3.86693 8.72928C3.7173 8.88707 3.59927 9.05303 3.51253 9.22732C3.4261 9.40161 3.3708 9.51775 3.34726 9.5759L4.844 11.1543C5.36491 11.7037 6.21466 11.7037 6.73573 11.1542L7.19483 10.67L10.4648 7.22159H10.465Z" fill="#4F5159"/>
</svg>
