<svg width="80" height="30" viewBox="0 0 80 30" fill="none" xmlns="http://www.w3.org/2000/svg">
<path d="M19.5119 9.14119C19.5119 8.55045 19.6744 8.12314 19.9994 7.85926C20.3244 7.59562 20.7814 7.46355 21.3703 7.46355C21.7361 7.46355 22.071 7.51109 22.3757 7.60615C22.6802 7.70098 22.8833 7.76958 22.9852 7.81197V16.1362C22.9852 17.571 23.3099 18.6631 23.9601 19.4121C24.6099 20.1611 25.6054 20.5358 26.9457 20.5358C28.2862 20.5358 29.2815 20.1611 29.9315 19.4121C30.5812 18.6631 30.9065 17.5713 30.9065 16.1362V9.14119C30.9065 8.55045 31.069 8.12314 31.394 7.85926C31.7187 7.59562 32.1659 7.46355 32.7345 7.46355C33.1206 7.46355 33.4659 7.51109 33.7703 7.60615C34.075 7.70098 34.2781 7.76958 34.3798 7.81197V16.9274C34.3798 18.0035 34.2019 18.9689 33.8467 19.8235C33.4913 20.6781 32.9836 21.4007 32.3234 21.9914C31.6633 22.5824 30.8763 23.0305 29.9624 23.3365C29.0483 23.6426 28.0431 23.7955 26.9462 23.7955C25.8495 23.7955 24.8441 23.6426 23.9302 23.3365C23.0161 23.0305 22.2342 22.5821 21.5843 21.9914C20.9345 21.4007 20.4265 20.6781 20.0609 19.8235C19.6954 18.9689 19.5124 18.0035 19.5124 16.9274L19.5119 9.14119ZM39.9886 26.0746C40.07 26.117 40.2476 26.1959 40.5218 26.312C40.7959 26.4282 41.1412 26.5443 41.5574 26.6602C41.9739 26.7761 42.4612 26.8763 43.0199 26.9609C43.5784 27.0454 44.1829 27.0875 44.8328 27.0875C45.5234 27.0875 46.2038 27.0084 46.8741 26.8501C47.5441 26.6918 48.1434 26.4069 48.6715 25.9955C49.1995 25.5841 49.6311 25.009 49.9662 24.2706C50.3014 23.5318 50.4688 22.5824 50.4688 21.422V21.0422C50.0018 21.6119 49.3264 22.1499 48.4429 22.6564C47.5594 23.1628 46.4981 23.4162 45.2593 23.4162C44.1218 23.4162 43.076 23.2209 42.1213 22.8306C41.1666 22.4403 40.3443 21.8917 39.6537 21.1848C38.9632 20.4779 38.425 19.6287 38.0391 18.6369C37.653 17.645 37.4601 16.5478 37.4601 15.345C37.4601 14.1423 37.6684 13.0345 38.0846 12.0219C38.5011 11.009 39.0749 10.1333 39.8061 9.39479C40.5372 8.6563 41.4157 8.0761 42.4414 7.65393C43.4671 7.23201 44.5892 7.02081 45.8078 7.02081C46.9656 7.02081 48.0368 7.20016 49.0219 7.55887C50.007 7.91757 50.865 8.46617 51.5964 9.20465C52.3275 9.94314 52.8964 10.882 53.3025 12.0216C53.7089 13.1612 53.9119 14.501 53.9119 16.0414V20.5992C53.9119 22.2661 53.6935 23.6957 53.257 24.888C52.8202 26.0803 52.216 27.0562 51.444 27.8157C50.6724 28.5755 49.7533 29.1293 48.687 29.4774C47.6208 29.8256 46.4578 29.9998 45.1986 29.9998C44.3659 29.9998 43.6093 29.9523 42.9289 29.8575C42.2485 29.7624 41.6442 29.6463 41.1162 29.5093C40.5881 29.3721 40.1513 29.2349 39.8061 29.0979C39.4608 28.9607 39.207 28.8499 39.0445 28.7657L39.9886 26.0746ZM45.7772 20.3775C46.4677 20.3775 47.0974 20.251 47.666 19.9977C48.2347 19.7443 48.7222 19.3964 49.1285 18.9532C49.5346 18.5099 49.8547 17.9824 50.0882 17.3706C50.3217 16.7586 50.4384 16.0835 50.4384 15.3448C50.4384 14.6274 50.3217 13.9575 50.0882 13.3352C49.8547 12.7126 49.5346 12.1745 49.1285 11.721C48.7222 11.2675 48.2347 10.9139 47.666 10.6608C47.0972 10.4077 46.4677 10.281 45.7772 10.281C45.0663 10.281 44.4215 10.4128 43.8425 10.6767C43.2638 10.9406 42.7711 11.3045 42.365 11.7688C41.9586 12.2331 41.644 12.7711 41.4204 13.3829C41.1971 13.9948 41.0853 14.6489 41.0853 15.3453C41.0853 16.8646 41.5119 18.0831 42.365 19.001C43.2178 19.9188 44.3555 20.3775 45.7772 20.3775ZM57.3883 9.14119C57.3883 8.55045 57.5508 8.12314 57.8755 7.85926C58.2005 7.59562 58.6576 7.46355 59.2465 7.46355C59.612 7.46355 59.9472 7.51109 60.2519 7.60615C60.5564 7.70098 60.7597 7.76958 60.8613 7.81197V23.3525H57.3883V9.14119ZM59.1248 0.342354C59.7139 0.342354 60.2113 0.553314 60.6177 0.97548C61.024 1.3974 61.2271 1.91439 61.2271 2.5262C61.2271 3.13825 61.024 3.655 60.6177 4.07716C60.2113 4.49933 59.7139 4.71029 59.1248 4.71029C58.5356 4.71029 58.0382 4.49933 57.6319 4.07716C57.2258 3.655 57.0225 3.13825 57.0225 2.5262C57.0225 1.91439 57.2258 1.3974 57.6319 0.97548C58.0382 0.553314 58.5356 0.342354 59.1248 0.342354ZM64.7037 13.7622C64.7037 12.7072 64.8916 11.7629 65.2673 10.9293C65.643 10.0958 66.161 9.3889 66.8211 8.8087C67.4812 8.2285 68.2633 7.78526 69.167 7.47924C70.0708 7.17321 71.0611 7.02032 72.1375 7.02032C73.2141 7.02032 74.2092 7.17321 75.1233 7.47924C76.0372 7.78526 76.8242 8.22825 77.4843 8.8087C78.1445 9.3889 78.6574 10.0958 79.023 10.9293C79.3885 11.7629 79.5713 12.7072 79.5713 13.7622V23.3525H76.0983V14.6801C76.0983 13.2452 75.7631 12.1532 75.0929 11.4042C74.4226 10.6552 73.4375 10.2805 72.1375 10.2805C70.8172 10.2805 69.8272 10.6552 69.167 11.4042C68.5069 12.1532 68.177 13.2452 68.177 14.6801V23.3525H64.7037V13.7622Z" fill="#1D32A8"/>
<path fill-rule="evenodd" clip-rule="evenodd" d="M0 1.67617C0 1.10699 0.162262 0.685315 0.487255 0.41114C0.812013 0.136965 1.26861 0 1.85704 0C2.22236 0 2.55726 0.0475339 2.86174 0.142111C3.16621 0.237178 3.36904 0.305782 3.47069 0.347681V9.42486C3.97799 8.75008 4.67845 8.17551 5.57135 7.70116C6.46426 7.22656 7.48924 6.98938 8.64606 6.98938C9.62882 6.98938 10.5444 7.14889 11.3934 7.46741L8.72318 10.2462C8.53969 10.2258 8.35149 10.2155 8.15904 10.2155C7.44844 10.2155 6.80435 10.3474 6.22582 10.6107C5.64753 10.8744 5.15532 11.238 4.74943 11.7018C4.34355 12.1656 4.02374 12.714 3.79049 13.3466C3.55724 13.9793 3.44026 14.6538 3.44026 15.3707C3.44026 16.1298 3.55724 16.8256 3.79049 17.458C4.02398 18.0907 4.34874 18.6282 4.76477 19.071C5.18079 19.5137 5.67795 19.8616 6.25648 20.1147C6.83477 20.3679 7.46919 20.4943 8.15927 20.4943C8.84935 20.4943 9.4833 20.3625 10.0618 20.0991C10.5812 19.8624 11.0352 19.5492 11.4236 19.1597L11.4243 19.1589C11.463 19.1202 11.5007 19.0808 11.538 19.0406L16.3551 14.0283C16.4115 14.4615 16.4398 14.9089 16.4398 15.3707C16.4398 16.5725 16.2369 17.6901 15.8308 18.723C15.4249 19.7563 14.8568 20.6418 14.1261 21.3798C13.3953 22.1178 12.5278 22.6975 11.5231 23.1194C10.5184 23.5411 9.4175 23.752 8.22012 23.752C7.02274 23.752 5.92158 23.5624 4.91688 23.1829C3.91219 22.8031 3.04452 22.2339 2.31411 21.4751C1.58322 20.7158 1.01507 19.7673 0.609186 18.6285C0.203298 17.4899 0.000236075 16.1511 0.000236075 14.6119V1.67617H0Z" fill="#1D32A8"/>
<path d="M15.9341 10.8322C16.2697 10.4836 16.4162 10.1195 16.3744 9.73971C16.3324 9.36018 16.1379 8.98971 15.7902 8.62855C15.5624 8.39186 15.3228 8.20516 15.0712 8.0682C14.8195 7.93123 14.6518 7.84425 14.5679 7.80676L8.81585 13.7823L8.00903 12.9441C7.6739 12.5956 7.32272 12.4432 6.9574 12.4866C6.59184 12.5302 6.23524 12.7326 5.88785 13.0938C5.66002 13.3304 5.48031 13.5794 5.34823 13.8408C5.21663 14.1023 5.13244 14.2765 5.09659 14.3637L7.37555 16.7313C8.1687 17.5553 9.46254 17.5553 10.2559 16.731L10.955 16.0048L15.9339 10.8322H15.9341Z" fill="#FF9933"/>
</svg>
