<svg width="16" height="22" viewBox="0 0 16 22" fill="none" xmlns="http://www.w3.org/2000/svg">
<path fill-rule="evenodd" clip-rule="evenodd" d="M0 1.55253C0 1.02534 0.157921 0.634764 0.474221 0.380813C0.790291 0.126862 1.23467 0 1.80736 0C2.16291 0 2.48885 0.0440276 2.78518 0.131628C3.08151 0.219683 3.27892 0.283227 3.37784 0.322034V8.72965C3.87158 8.10464 4.5533 7.57246 5.42232 7.13309C6.29134 6.6935 7.2889 6.47382 8.41477 6.47382C9.37125 6.47382 10.2623 6.62156 11.0886 6.91659L8.48983 9.49037C8.31125 9.47153 8.12808 9.462 7.94078 9.462C7.24919 9.462 6.62233 9.58409 6.05928 9.82806C5.49646 10.0723 5.01742 10.409 4.62239 10.8386C4.22736 11.2682 3.91611 11.7761 3.68909 12.3621C3.46208 12.9481 3.34823 13.5729 3.34823 14.2369C3.34823 14.94 3.46208 15.5845 3.68909 16.1702C3.91634 16.7562 4.23241 17.2541 4.63731 17.6642C5.04221 18.0743 5.52607 18.3966 6.08912 18.631C6.65194 18.8654 7.26939 18.9825 7.94101 18.9825C8.61263 18.9825 9.22962 18.8604 9.79267 18.6165C10.2981 18.3973 10.74 18.1072 11.118 17.7464L11.1187 17.7457C11.1563 17.7098 11.1931 17.6733 11.2293 17.6361L15.9176 12.9935C15.9725 13.3947 16 13.8091 16 14.2369C16 15.3501 15.8026 16.3852 15.4073 17.342C15.0123 18.299 14.4594 19.1192 13.7483 19.8027C13.0369 20.4863 12.1927 21.0232 11.2149 21.414C10.2371 21.8046 9.16558 22 8.00023 22C6.83488 22 5.76318 21.8243 4.78536 21.4728C3.80754 21.121 2.96307 20.5939 2.2522 19.891C1.54087 19.1877 0.987921 18.3092 0.592891 17.2544C0.19786 16.1998 0.00022976 14.9597 0.00022976 13.5341V1.55253H0Z" fill="#131315"/>
<path d="M15.5081 10.0332C15.8347 9.71027 15.9772 9.37304 15.9366 9.02127C15.8957 8.66974 15.7064 8.32659 15.368 7.99208C15.1463 7.77285 14.9131 7.59992 14.6682 7.47306C14.4233 7.34619 14.2601 7.26563 14.1784 7.23091L8.58022 12.7656L7.79498 11.9893C7.46881 11.6665 7.12703 11.5254 6.77148 11.5655C6.4157 11.6059 6.06865 11.7934 5.73054 12.1279C5.50881 12.3471 5.3339 12.5777 5.20536 12.8199C5.07728 13.062 4.99534 13.2234 4.96045 13.3042L7.17845 15.4971C7.95038 16.2603 9.20961 16.2603 9.98177 15.4969L10.6621 14.8242L15.5078 10.0332H15.5081Z" fill="#4F5159"/>
</svg>
