<svg width="80" height="30" viewBox="0 0 80 30" fill="none" xmlns="http://www.w3.org/2000/svg">
<g opacity="0.3">
<path d="M19.512 9.14119C19.512 8.55046 19.6745 8.12314 19.9995 7.85926C20.3244 7.59562 20.7815 7.46356 21.3704 7.46356C21.7362 7.46356 22.0711 7.51109 22.3758 7.60616C22.6803 7.70098 22.8834 7.76958 22.9852 7.81197V16.1362C22.9852 17.571 23.31 18.6631 23.9602 19.4121C24.61 20.1611 25.6055 20.5358 26.9458 20.5358C28.2863 20.5358 29.2816 20.1611 29.9316 19.4121C30.5813 18.6631 30.9065 17.5713 30.9065 16.1362V9.14119C30.9065 8.55046 31.069 8.12314 31.394 7.85926C31.7188 7.59562 32.166 7.46356 32.7346 7.46356C33.1207 7.46356 33.4659 7.51109 33.7704 7.60616C34.0751 7.70098 34.2782 7.76958 34.3798 7.81197V16.9274C34.3798 18.0035 34.202 18.9689 33.8468 19.8235C33.4914 20.6781 32.9836 21.4007 32.3235 21.9914C31.6634 22.5824 30.8764 23.0305 29.9625 23.3366C29.0483 23.6426 28.0432 23.7955 26.9462 23.7955C25.8496 23.7955 24.8442 23.6426 23.9303 23.3366C23.0161 23.0305 22.2343 22.5821 21.5843 21.9914C20.9346 21.4007 20.4266 20.6781 20.061 19.8235C19.6955 18.9689 19.5124 18.0035 19.5124 16.9274L19.512 9.14119ZM39.9887 26.0746C40.07 26.117 40.2476 26.1959 40.5219 26.3121C40.796 26.4282 41.1413 26.5443 41.5575 26.6602C41.974 26.7761 42.4613 26.8763 43.02 26.9609C43.5785 27.0454 44.1829 27.0875 44.8329 27.0875C45.5235 27.0875 46.2039 27.0084 46.8742 26.8501C47.5442 26.6918 48.1435 26.4069 48.6715 25.9955C49.1996 25.5841 49.6312 25.009 49.9663 24.2706C50.3014 23.5318 50.4689 22.5824 50.4689 21.422V21.0422C50.0019 21.6119 49.3265 22.1499 48.443 22.6564C47.5595 23.1628 46.4982 23.4162 45.2593 23.4162C44.1219 23.4162 43.0761 23.2209 42.1214 22.8306C41.1667 22.4403 40.3443 21.8917 39.6538 21.1848C38.9632 20.4779 38.425 19.6287 38.0392 18.6369C37.6531 17.645 37.4602 16.5478 37.4602 15.345C37.4602 14.1423 37.6684 13.0345 38.0847 12.0219C38.5012 11.009 39.075 10.1333 39.8061 9.39479C40.5373 8.6563 41.4158 8.0761 42.4415 7.65393C43.4671 7.23201 44.5893 7.02081 45.8079 7.02081C46.9657 7.02081 48.0369 7.20016 49.022 7.55887C50.0071 7.91757 50.8651 8.46617 51.5965 9.20465C52.3276 9.94314 52.8964 10.882 53.3026 12.0216C53.7089 13.1612 53.912 14.501 53.912 16.0414V20.5992C53.912 22.2661 53.6936 23.6957 53.257 24.888C52.8203 26.0803 52.216 27.0562 51.4441 27.8157C50.6724 28.5755 49.7533 29.1293 48.6871 29.4774C47.6208 29.8256 46.4579 29.9998 45.1987 29.9998C44.366 29.9998 43.6094 29.9523 42.929 29.8575C42.2485 29.7624 41.6443 29.6463 41.1162 29.5093C40.5882 29.3721 40.1514 29.2349 39.8061 29.0979C39.4609 28.9607 39.2071 28.8499 39.0446 28.7657L39.9887 26.0746ZM45.7772 20.3775C46.4678 20.3775 47.0975 20.251 47.6661 19.9977C48.2347 19.7443 48.7222 19.3964 49.1286 18.9532C49.5347 18.5099 49.8548 17.9824 50.0882 17.3706C50.3217 16.7586 50.4385 16.0835 50.4385 15.3448C50.4385 14.6274 50.3217 13.9575 50.0882 13.3352C49.8548 12.7126 49.5347 12.1745 49.1286 11.721C48.7222 11.2675 48.2347 10.9139 47.6661 10.6608C47.0973 10.4077 46.4678 10.281 45.7772 10.281C45.0664 10.281 44.4216 10.4128 43.8426 10.6767C43.2638 10.9406 42.7712 11.3045 42.365 11.7688C41.9587 12.2331 41.6441 12.7711 41.4205 13.3829C41.1971 13.9948 41.0854 14.649 41.0854 15.3453C41.0854 16.8646 41.512 18.0831 42.365 19.001C43.2179 19.9188 44.3556 20.3775 45.7772 20.3775ZM57.3883 9.14119C57.3883 8.55046 57.5508 8.12314 57.8756 7.85926C58.2006 7.59562 58.6576 7.46356 59.2466 7.46356C59.6121 7.46356 59.9472 7.51109 60.252 7.60616C60.5564 7.70098 60.7597 7.76958 60.8614 7.81197V23.3525H57.3883V9.14119ZM59.1249 0.342356C59.714 0.342356 60.2114 0.553316 60.6178 0.975482C61.0241 1.3974 61.2272 1.91439 61.2272 2.5262C61.2272 3.13826 61.0241 3.655 60.6178 4.07716C60.2114 4.49933 59.714 4.71029 59.1249 4.71029C58.5357 4.71029 58.0383 4.49933 57.632 4.07716C57.2258 3.655 57.0225 3.13826 57.0225 2.5262C57.0225 1.91439 57.2258 1.3974 57.632 0.975482C58.0383 0.553316 58.5357 0.342356 59.1249 0.342356ZM64.7038 13.7622C64.7038 12.7072 64.8917 11.7629 65.2674 10.9293C65.6431 10.0958 66.161 9.38891 66.8212 8.8087C67.4813 8.2285 68.2634 7.78526 69.1671 7.47924C70.0709 7.17321 71.0612 7.02032 72.1376 7.02032C73.2142 7.02032 74.2092 7.17321 75.1234 7.47924C76.0373 7.78526 76.8243 8.22826 77.4844 8.8087C78.1445 9.38891 78.6575 10.0958 79.023 10.9293C79.3886 11.7629 79.5714 12.7072 79.5714 13.7622V23.3525H76.0983V14.6801C76.0983 13.2452 75.7632 12.1532 75.0929 11.4042C74.4227 10.6552 73.4375 10.2805 72.1376 10.2805C70.8173 10.2805 69.8272 10.6552 69.1671 11.4042C68.507 12.1532 68.177 13.2452 68.177 14.6801V23.3525H64.7038V13.7622Z" fill="#131315"/>
<path fill-rule="evenodd" clip-rule="evenodd" d="M0 1.67617C0 1.10699 0.162262 0.685315 0.487255 0.41114C0.812013 0.136965 1.26861 0 1.85704 0C2.22236 0 2.55726 0.0475339 2.86174 0.142111C3.16621 0.237178 3.36904 0.305782 3.47069 0.347681V9.42486C3.97799 8.75008 4.67845 8.17551 5.57135 7.70116C6.46426 7.22656 7.48924 6.98938 8.64606 6.98938C9.62882 6.98938 10.5444 7.14889 11.3934 7.46741L8.72318 10.2462C8.53969 10.2258 8.35149 10.2155 8.15904 10.2155C7.44844 10.2155 6.80435 10.3474 6.22582 10.6107C5.64753 10.8744 5.15532 11.238 4.74943 11.7018C4.34355 12.1656 4.02374 12.714 3.79049 13.3466C3.55724 13.9793 3.44026 14.6538 3.44026 15.3707C3.44026 16.1298 3.55724 16.8256 3.79049 17.458C4.02398 18.0907 4.34874 18.6282 4.76477 19.071C5.18079 19.5137 5.67795 19.8616 6.25648 20.1147C6.83477 20.3679 7.46919 20.4943 8.15927 20.4943C8.84935 20.4943 9.4833 20.3625 10.0618 20.0991C10.5812 19.8624 11.0352 19.5492 11.4236 19.1597L11.4243 19.1589C11.463 19.1202 11.5007 19.0808 11.538 19.0406L16.3551 14.0283C16.4115 14.4615 16.4398 14.9089 16.4398 15.3707C16.4398 16.5725 16.2369 17.6901 15.8308 18.723C15.4249 19.7563 14.8568 20.6418 14.1261 21.3798C13.3953 22.1178 12.5278 22.6975 11.5231 23.1194C10.5184 23.5411 9.4175 23.752 8.22012 23.752C7.02274 23.752 5.92158 23.5624 4.91688 23.1829C3.91219 22.8031 3.04452 22.2339 2.31411 21.4751C1.58322 20.7158 1.01507 19.7673 0.609186 18.6285C0.203298 17.4899 0.000236075 16.1511 0.000236075 14.6119V1.67617H0Z" fill="#131315"/>
<path d="M15.9342 10.8322C16.2698 10.4836 16.4163 10.1195 16.3745 9.73971C16.3325 9.36018 16.138 8.98971 15.7903 8.62855C15.5625 8.39186 15.3229 8.20516 15.0712 8.0682C14.8196 7.93123 14.6519 7.84425 14.568 7.80676L8.81594 13.7823L8.00912 12.9441C7.67399 12.5956 7.32281 12.4432 6.95749 12.4866C6.59193 12.5302 6.23534 12.7326 5.88794 13.0938C5.66011 13.3304 5.4804 13.5794 5.34833 13.8408C5.21672 14.1023 5.13253 14.2765 5.09668 14.3637L7.37564 16.7313C8.16879 17.5553 9.46263 17.5553 10.256 16.731L10.9551 16.0048L15.934 10.8322H15.9342Z" fill="#4F5159"/>
</g>
</svg>
