<svg width="211" height="120" viewBox="0 0 211 120" fill="none" xmlns="http://www.w3.org/2000/svg">
<path d="M197 38L193 44L189 38M200.906 76H185.094C180.072 76 176 71.928 176 66.906V53.094C176 48.072 180.072 44 185.094 44H200.904C205.928 44 210 48.072 210 53.094V66.904C210 71.928 205.928 76 200.906 76Z" stroke="white" stroke-width="2" stroke-linecap="round" stroke-linejoin="round"/>
<path d="M188 55V65M183 55H193L198 65L203 55" stroke="#FF9933" stroke-width="2" stroke-linecap="round" stroke-linejoin="round"/>
<g filter="url(#filter0_d)">
<path d="M39.0238 48.2822C39.0238 47.1008 39.3488 46.2461 39.9988 45.7184C40.6487 45.1911 41.5629 44.927 42.7407 44.927C43.4723 44.927 44.1421 45.022 44.7515 45.2122C45.3604 45.4018 45.7666 45.539 45.9703 45.6238V62.2723C45.9703 65.1419 46.6198 67.326 47.9203 68.8241C49.2198 70.3221 51.2108 71.0714 53.8914 71.0714C56.5725 71.0714 58.563 70.3221 59.863 68.8241C61.1625 67.326 61.8129 65.1424 61.8129 62.2723V48.2822C61.8129 47.1008 62.1379 46.2461 62.7879 45.7184C63.4374 45.1911 64.3318 44.927 65.469 44.927C66.2412 44.927 66.9317 45.022 67.5407 45.2122C68.1501 45.4018 68.5562 45.539 68.7595 45.6238V63.8546C68.7595 66.0068 68.4038 67.9376 67.6935 69.6468C66.9826 71.3561 65.9671 72.8012 64.6468 73.9827C63.3266 75.1646 61.7526 76.0609 59.9248 76.673C58.0965 77.285 56.0862 77.5908 53.8923 77.5908C51.699 77.5908 49.6882 77.285 47.8604 76.673C46.0321 76.0609 44.4685 75.1641 43.1685 73.9827C41.869 72.8012 40.853 71.3561 40.1219 69.6468C39.3907 67.9376 39.0247 66.0068 39.0247 63.8546L39.0238 48.2822ZM79.9772 82.1491C80.1399 82.2339 80.4951 82.3917 81.0437 82.624C81.5918 82.8562 82.2824 83.0885 83.1149 83.3203C83.9479 83.5521 84.9224 83.7525 86.0398 83.9216C87.1568 84.0906 88.3657 84.1749 89.6657 84.1749C91.0468 84.1749 92.4076 84.0166 93.7482 83.7001C95.0882 83.3835 96.2868 82.8136 97.3429 81.9908C98.399 81.1681 99.2622 80.0179 99.9325 78.541C100.603 77.0635 100.938 75.1646 100.938 72.8438V72.0843C100.004 73.2236 98.6528 74.2997 96.8858 75.3126C95.1189 76.3255 92.9963 76.8322 90.5185 76.8322C88.2436 76.8322 86.1521 76.4417 84.2427 75.661C82.3333 74.8804 80.6885 73.7832 79.3074 72.3695C77.9263 70.9557 76.8499 69.2573 76.0782 67.2736C75.3061 65.2899 74.9202 63.0955 74.9202 60.69C74.9202 58.2844 75.3367 56.0689 76.1693 54.0436C77.0023 52.0178 78.1499 50.2664 79.6121 48.7894C81.0744 47.3125 82.8314 46.1521 84.8828 45.3077C86.9341 44.4639 89.1784 44.0415 91.6157 44.0415C93.9312 44.0415 96.0736 44.4002 98.0438 45.1176C100.014 45.835 101.73 46.9322 103.193 48.4092C104.655 49.8861 105.793 51.7639 106.605 54.0431C107.418 56.3223 107.824 59.0018 107.824 62.0826V71.1983C107.824 74.532 107.387 77.3914 106.514 79.7759C105.64 82.1604 104.432 84.1122 102.888 85.6313C101.345 87.1509 99.5065 88.2584 97.374 88.9547C95.2415 89.6511 92.9156 89.9995 90.3973 89.9995C88.7318 89.9995 87.2186 89.9044 85.8577 89.7148C84.4969 89.5246 83.2885 89.2924 82.2323 89.0184C81.1762 88.744 80.3027 88.4696 79.6121 88.1957C78.9216 87.9212 78.414 87.6997 78.089 87.5312L79.9772 82.1491ZM91.5543 70.7548C92.9354 70.7548 94.1948 70.5019 95.3321 69.9952C96.4693 69.4885 97.4443 68.7927 98.257 67.9062C99.0693 67.0197 99.7094 65.9647 100.176 64.7411C100.643 63.517 100.877 62.1669 100.877 60.6895C100.877 59.2546 100.643 57.9149 100.176 56.6702C99.7094 55.425 99.0693 54.3489 98.257 53.4418C97.4443 52.5348 96.4693 51.8277 95.3321 51.3214C94.1944 50.8152 92.9354 50.5619 91.5543 50.5619C90.1327 50.5619 88.8431 50.8255 87.6851 51.3533C86.5275 51.8811 85.5422 52.6088 84.7299 53.5374C83.9172 54.466 83.288 55.5421 82.8408 56.7657C82.3941 57.9894 82.1706 59.2978 82.1706 60.6904C82.1706 63.7292 83.0238 66.1661 84.7299 68.0018C86.4356 69.8375 88.711 70.7548 91.5543 70.7548ZM114.777 48.2822C114.777 47.1008 115.102 46.2461 115.751 45.7184C116.401 45.1911 117.315 44.927 118.493 44.927C119.224 44.927 119.894 45.022 120.504 45.2122C121.113 45.4018 121.519 45.539 121.723 45.6238V76.7048H114.777V48.2822ZM118.25 30.6846C119.428 30.6846 120.423 31.1065 121.235 31.9508C122.048 32.7947 122.454 33.8286 122.454 35.0523C122.454 36.2764 122.048 37.3099 121.235 38.1542C120.423 38.9985 119.428 39.4204 118.25 39.4204C117.071 39.4204 116.076 38.9985 115.264 38.1542C114.452 37.3099 114.045 36.2764 114.045 35.0523C114.045 33.8286 114.452 32.7947 115.264 31.9508C116.076 31.1065 117.071 30.6846 118.25 30.6846ZM129.407 57.5243C129.407 55.4142 129.783 53.5256 130.535 51.8585C131.286 50.1914 132.322 48.7777 133.642 47.6173C134.962 46.4569 136.527 45.5704 138.334 44.9583C140.142 44.3463 142.122 44.0405 144.275 44.0405C146.428 44.0405 148.418 44.3463 150.247 44.9583C152.074 45.5704 153.648 46.4564 154.969 47.6173C156.289 48.7777 157.315 50.1914 158.046 51.8585C158.777 53.5256 159.143 55.4142 159.143 57.5243V76.7048H152.197V59.36C152.197 56.4903 151.526 54.3063 150.186 52.8082C148.845 51.3102 146.875 50.5609 144.275 50.5609C141.634 50.5609 139.654 51.3102 138.334 52.8082C137.014 54.3063 136.354 56.4903 136.354 59.36V76.7048H129.407V57.5243Z" fill="white" fill-opacity="0.2"/>
</g>
<path fill-rule="evenodd" clip-rule="evenodd" d="M0 33.3523C0 32.214 0.324524 31.3706 0.974511 30.8223C1.62403 30.2739 2.53721 30 3.71408 30C4.44472 30 5.11452 30.0951 5.72347 30.2842C6.33242 30.4744 6.73808 30.6116 6.94137 30.6954V48.8497C7.95598 47.5002 9.35689 46.351 11.1427 45.4023C12.9285 44.4531 14.9785 43.9788 17.2921 43.9788C19.2576 43.9788 21.0887 44.2978 22.7868 44.9348L17.4464 50.4923C17.0794 50.4516 16.703 50.4311 16.3181 50.4311C14.8969 50.4311 13.6087 50.6947 12.4516 51.2215C11.2951 51.7488 10.3106 52.476 9.49887 53.4036C8.68709 54.3313 8.04748 55.428 7.58098 56.6932C7.11448 57.9585 6.88052 59.3076 6.88052 60.7414C6.88052 62.2596 7.11448 63.6513 7.58098 64.916C8.04796 66.1813 8.69747 67.2564 9.52953 68.1419C10.3616 69.0274 11.3559 69.7233 12.513 70.2295C13.6695 70.7357 14.9384 70.9886 16.3185 70.9886C17.6987 70.9886 18.9666 70.7249 20.1237 70.1981C21.1623 69.7248 22.0703 69.0985 22.8472 68.3193L22.8486 68.3179C22.926 68.2404 23.0014 68.1615 23.076 68.0812L32.7102 58.0565C32.8229 58.9229 32.8795 59.8177 32.8795 60.7414C32.8795 63.145 32.4739 65.3801 31.6616 67.4461C30.8499 69.5126 29.7136 71.2836 28.2523 72.7596C26.7905 74.2355 25.0556 75.395 23.0462 76.2388C21.0368 77.0822 18.835 77.5041 16.4402 77.5041C14.0455 77.5041 11.8432 77.1248 9.83377 76.3657C7.82438 75.6062 6.08903 74.4678 4.62821 72.9502C3.16645 71.4316 2.03015 69.5346 1.21837 67.2569C0.406597 64.9797 0.000472149 62.3022 0.000472149 59.2238V33.3523H0Z" fill="white"/>
<path d="M31.8682 51.6642C32.5394 50.9669 32.8323 50.2387 32.7489 49.4792C32.6649 48.7201 32.2758 47.9792 31.5805 47.2569C31.1248 46.7835 30.6456 46.4101 30.1423 46.1361C29.639 45.8622 29.3036 45.6883 29.1357 45.6133L17.6317 57.5643L16.0181 55.8879C15.3478 55.191 14.6454 54.8862 13.9148 54.973C13.1837 55.0602 12.4705 55.465 11.7757 56.1873C11.32 56.6606 10.9606 57.1585 10.6965 57.6814C10.4333 58.2043 10.2649 58.5527 10.1932 58.7271L14.7511 63.4623C16.3374 65.1103 18.9251 65.1103 20.5118 63.4619L21.9099 62.0094L31.8677 51.6642H31.8682Z" fill="#FF9933"/>
<defs>
<filter id="filter0_d" x="9.02377" y="0.68457" width="180.119" height="119.315" filterUnits="userSpaceOnUse" color-interpolation-filters="sRGB">
<feFlood flood-opacity="0" result="BackgroundImageFix"/>
<feColorMatrix in="SourceAlpha" type="matrix" values="0 0 0 0 0 0 0 0 0 0 0 0 0 0 0 0 0 0 127 0"/>
<feOffset/>
<feGaussianBlur stdDeviation="15"/>
<feColorMatrix type="matrix" values="0 0 0 0 0 0 0 0 0 0 0 0 0 0 0 0 0 0 0.15 0"/>
<feBlend mode="normal" in2="BackgroundImageFix" result="effect1_dropShadow"/>
<feBlend mode="normal" in="SourceGraphic" in2="effect1_dropShadow" result="shape"/>
</filter>
</defs>
</svg>
