<svg width="114" height="150" viewBox="0 0 114 150" fill="none" xmlns="http://www.w3.org/2000/svg">
<g clip-path="url(#clip0)">
<path d="M90.8565 74.8811C90.8565 65.2024 83.1095 55.9409 74.351 53.0171C65.592 50.0959 48.0753 50.0959 39.317 53.0171C30.5588 55.9401 20.7891 65.2024 20.7891 74.8811V114.033C20.7891 123.711 28.6385 131.568 38.3058 131.568H73.3398C83.0088 131.568 90.8573 123.711 90.8573 114.033V74.8811H90.8565Z" fill="#F9A822"/>
<path d="M28.3485 56.8679C28.3485 56.8679 61.5157 42.8539 85.398 58.2869" stroke="#FFD743" stroke-width="1.8197" stroke-linecap="round" stroke-linejoin="round"/>
<path fill-rule="evenodd" clip-rule="evenodd" d="M36.3495 66.0684C30.4685 74.6716 34.1427 90.5759 38.9665 99.0061C39.8787 100.6 44.7025 106.296 44.8597 106.785C45.1372 107.649 40.7368 109.532 40.171 109.686C35.71 110.899 29.2272 111.839 26.1 107.504C20.432 99.6489 21.309 90.4349 25.5685 83.4529" fill="#FA7D00"/>
<path fill-rule="evenodd" clip-rule="evenodd" d="M76.6175 67.5176C82.4992 76.1208 78.8242 92.0241 74.0012 100.454C73.0892 102.049 68.2637 107.745 68.1082 108.233C67.8305 109.097 72.231 110.98 72.7967 111.134C77.258 112.348 83.7407 113.286 86.8685 108.952C92.5367 101.097 91.6597 91.8831 87.3992 84.9011" fill="#FA7D00"/>
<path fill-rule="evenodd" clip-rule="evenodd" d="M56.47 49.5396C64.606 49.5396 71.2107 53.4586 71.2107 58.2873C71.2107 63.1151 64.606 67.0348 56.47 67.0348C48.334 67.0348 41.7285 63.1151 41.7285 58.2873C41.7285 53.4593 48.334 49.5396 56.47 49.5396Z" fill="#FFD743"/>
<path d="M68.7018 30.1054L45.0448 29.8569C47.177 41.2619 48.2768 45.9774 45.0448 57.3817C53.4633 64.9284 61.3405 64.8954 68.7018 57.6292C65.5035 46.5504 66.9905 41.6832 68.7018 30.1054Z" fill="#FF9998"/>
<path opacity="0.5" fill-rule="evenodd" clip-rule="evenodd" d="M44.162 50.4028C44.162 50.4028 57.7678 82.4946 69.7605 49.2373C81.7533 15.9798 44.162 50.4028 44.162 50.4028Z" fill="#FF6A68"/>
<path fill-rule="evenodd" clip-rule="evenodd" d="M56.8727 6.97217C66.5187 6.97217 74.351 16.9099 74.351 29.1501C74.351 39.7951 65.8907 51.7688 59.5462 54.5706C58.5965 54.9903 56.2807 54.6861 55.4612 54.6861C49.1692 54.6861 39.3955 41.3911 39.3955 29.1501C39.3955 16.9099 47.227 6.97217 56.8727 6.97217Z" fill="#FFAEAD"/>
<path fill-rule="evenodd" clip-rule="evenodd" d="M73.5437 29.1504L69.592 44.8406C61.2282 40.4536 52.903 40.3144 44.6212 44.8881L39.3955 29.1504C39.3955 29.1504 37.6752 42.3511 39.2595 45.2464C40.844 48.1414 50.504 56.3471 55.1777 56.4594H58.5482C63.2212 56.3471 72.095 48.1421 73.6795 45.2464C75.264 42.3504 73.5437 29.1504 73.5437 29.1504Z" fill="#21167F"/>
<path fill-rule="evenodd" clip-rule="evenodd" d="M63.2507 45.9681C63.2507 44.8328 62.3657 43.5731 59.91 43.9108C58.0815 44.1623 55.5857 44.3346 53.5903 43.9108C51.3563 43.4371 50.2493 44.8328 50.2493 45.9681C50.2493 47.1041 52.1015 47.7083 53.5903 48.0256C55.2007 48.3688 58.2985 48.3688 59.91 48.0256C61.3985 47.7083 63.2507 47.1041 63.2507 45.9681Z" fill="#FFAEAD"/>
<path fill-rule="evenodd" clip-rule="evenodd" d="M41.1185 20.8945C45.4165 23.633 51.815 27.0699 56.873 25.9904C58.983 25.5404 61.3675 23.7723 62.7602 22.1035C63.0157 21.7986 64.6092 20.7527 64.9867 20.8363C65.3077 20.906 64.4217 22.8002 64.4217 22.8002C65.3887 23.5478 69.2937 21.2543 69.0882 20.9248C69.0882 20.9248 71.639 24.2051 72.2972 25.4552C72.4152 25.6797 74.4607 31.5707 74.4607 31.5707C74.4607 31.5707 75.9257 23.5609 76.223 22.174C77.2997 17.1494 74.9455 10.5387 71.5047 6.79529C66.8135 1.69039 61.496 0.685467 54.278 0.768242C48.1022 0.839555 46.2802 6.96824 46.2802 6.96824C46.2802 6.96824 43.719 7.46334 41.8217 9.82234C38.8592 13.506 38.5692 26.9977 39.4912 31.3347C39.592 30.0444 40.0932 22.5699 41.1185 20.8945Z" fill="#21167F"/>
<path d="M44.184 19.146C44.8097 18.2583 44.008 17.4132 43.0442 17.3231C41.8725 17.2124 40.9742 18.4673 41.1682 19.4919C42.0617 24.1952 60.8467 31.9656 66.5547 16.1641" stroke="#406EFF" stroke-width="1.8197" stroke-linecap="round" stroke-linejoin="round"/>
<path d="M53.8023 45.3359C55.8478 46.6049 57.8473 46.5992 59.801 45.3359" stroke="#FF6A68" stroke-width="1.459" stroke-linecap="round" stroke-linejoin="round"/>
<path fill-rule="evenodd" clip-rule="evenodd" d="M57.727 30.481L57.7328 30.5735L57.7393 30.6703L57.7465 30.7728L57.7548 30.881L57.7638 30.994L57.7735 31.112L57.785 31.235L57.7965 31.362L57.8088 31.4933L57.8228 31.6293L57.8368 31.7685L57.8515 31.912L57.867 32.0588L57.8833 32.2088L57.9013 32.3628L57.9195 32.5185L57.9383 32.6785L57.9578 32.8408L57.9783 33.0048L57.9995 33.1718L58.0218 33.3408L58.0438 33.5113L58.0675 33.6843L58.0913 33.858L58.1168 34.0333L58.142 34.2105L58.1683 34.3883L58.1953 34.567L58.2093 34.6563L58.2233 34.7458L58.237 34.835L58.2518 34.9253L58.2658 35.0153L58.2805 35.1048L58.2953 35.1948L58.31 35.285L58.3255 35.3743L58.3403 35.4645L58.3558 35.5548L58.3715 35.644L58.3878 35.7333L58.4033 35.8228L58.4198 35.912L58.4353 36.0015L58.4515 36.09L58.4688 36.1785L58.4853 36.267L58.5025 36.3548L58.5188 36.4423L58.536 36.53L58.5533 36.617L58.5713 36.7038L58.5883 36.79L58.6065 36.876L58.6245 36.9613L58.6425 37.0458L58.6605 37.13L58.6785 37.2138L58.6973 37.2973L58.7153 37.38L58.734 37.462L58.753 37.5433L58.7718 37.6243L58.7915 37.7038L58.8103 37.7833L58.83 37.862L58.8495 37.94L58.8693 38.017L58.889 38.0933L58.9085 38.1685L58.9283 38.2433L58.9488 38.317L58.9683 38.39L58.9888 38.4613L59.0093 38.5318L59.0298 38.6023L59.0503 38.6703L59.0708 38.7383L59.0913 38.8048L59.1125 38.8703L59.133 38.935L59.1543 38.9973L59.1748 39.0595L59.196 39.1203L59.2165 39.1793L59.2378 39.2375L59.259 39.294L59.2803 39.349L59.3008 39.403L59.322 39.4555L59.3433 39.507L59.3533 39.531L59.3638 39.5555L59.3745 39.5793L59.385 39.603L59.395 39.626L59.4055 39.649L59.4163 39.671L59.426 39.6933L59.4368 39.7145L59.4465 39.7358L59.4573 39.7563L59.467 39.7768L59.4768 39.7965L59.4875 39.8153L59.4973 39.8343L59.507 39.8523L59.517 39.8703L59.5275 39.89L59.5693 39.9965L59.5923 40.1088L59.5973 40.2228L59.5833 40.3368L59.5513 40.4465L59.5015 40.549L59.435 40.6423L59.3548 40.7235L59.2615 40.7908L59.232 40.8105L59.2 40.831L59.169 40.8515L59.137 40.871L59.105 40.8915L59.073 40.9113L59.0403 40.93L59.0085 40.9498L58.9758 40.9685L58.9438 40.9875L58.911 41.0055L58.8783 41.0243L58.8455 41.0423L58.8128 41.0605L58.78 41.0775L58.7465 41.0948L58.7138 41.112L58.68 41.1293L58.6465 41.1458L58.613 41.162L58.5793 41.1785L58.545 41.194L58.5115 41.2095L58.477 41.2253L58.4435 41.24L58.409 41.2555L58.3748 41.2695L58.3403 41.2843L58.3058 41.298L58.2708 41.312L58.2363 41.326L58.201 41.339L58.1658 41.3523L58.1308 41.3645L58.0955 41.3775L58.0603 41.39L58.025 41.4015L57.989 41.4128L57.9538 41.4243L57.9178 41.4358L57.8818 41.4465L57.8458 41.457L57.8098 41.467L57.7735 41.4775L57.7375 41.4868L57.7008 41.4965L57.664 41.5055L57.6278 41.5145L57.591 41.5228L57.5543 41.531L57.5183 41.539L57.4805 41.5465L57.4428 41.5538L57.406 41.5613L57.3683 41.5678L57.3308 41.5743L57.2938 41.58L57.256 41.5858L57.2185 41.5915L57.18 41.5965L57.1423 41.6015L57.1048 41.6063L57.0663 41.6105L57.0285 41.6138L56.99 41.6178L56.9515 41.621L56.913 41.6235L56.8753 41.6268L56.836 41.6293L56.7975 41.631L56.759 41.6325L56.7205 41.6343L56.6813 41.635L56.6428 41.6358H56.6035H56.5643H56.5258L56.4865 41.635L56.447 41.6343L56.4078 41.6325L56.3685 41.631L56.3293 41.6293L56.289 41.6268L56.2498 41.6243L56.2105 41.6218L56.1703 41.6185L56.131 41.6145L56.091 41.6105L56.0508 41.6063L56.0115 41.6023L55.9713 41.5973L55.9313 41.5915L55.891 41.5858L55.851 41.58L55.8108 41.5743L55.7708 41.567L55.7305 41.5605L55.6905 41.553L55.6503 41.5458L55.6095 41.5375L55.5693 41.5293L55.5283 41.521L55.4883 41.512L55.448 41.503L55.4073 41.4933L55.3663 41.4833L55.326 41.4728L55.2853 41.462L55.2443 41.4515L55.204 41.44L55.1633 41.4285L55.1223 41.417L55.0813 41.4048L55.0403 41.3915L54.9995 41.3785L54.9585 41.3653L54.9175 41.3523L54.8765 41.3383L54.8355 41.3235L54.7948 41.3095L54.753 41.294L54.712 41.2793L54.671 41.2638L54.63 41.2473L54.5883 41.2318L54.5475 41.2145L54.5058 41.198L54.4673 41.1818L54.4655 41.181L54.007 40.6785L54.034 39.998L54.0355 39.994L54.5375 39.5343L55.2173 39.5605L55.2188 39.5613L55.2508 39.5775L55.2803 39.5933L55.309 39.608L55.3375 39.6228L55.367 39.6375L55.3958 39.6515L55.4243 39.6653L55.4523 39.6785L55.4808 39.6923L55.5095 39.7048L55.5373 39.7178L55.566 39.73L55.5938 39.7423L55.6218 39.7548L55.6503 39.7663L55.6783 39.7775L55.706 39.7883L55.733 39.799L55.761 39.8095L55.7888 39.8203L55.8158 39.83L55.8435 39.84L55.8708 39.8498L55.8978 39.8588L55.9248 39.8678L55.9518 39.8768L55.9788 39.885L56.0058 39.8933L56.0328 39.9015L56.059 39.9088L56.086 39.917L56.113 39.9243L56.1393 39.931L56.1655 39.9375L56.1925 39.944L56.2188 39.9505L56.2448 39.957L56.271 39.9628L56.2973 39.9685L56.3235 39.9735L56.3488 39.9785L56.375 39.9833L56.4013 39.9883L56.4268 39.9933L56.4528 39.9973L56.4783 40.0015L56.5045 40.0048L56.5298 40.0088L56.5553 40.012L56.5805 40.0145L56.606 40.0178L56.6323 40.0203L56.6575 40.0228L56.683 40.0253L56.7083 40.0268L56.733 40.0293L56.7583 40.031L56.7838 40.0318L56.809 40.0333L56.8345 40.0343L56.859 40.035H56.8843L56.9098 40.0358H56.9343H56.9598L56.985 40.035H57.0098L57.035 40.0343L57.0595 40.0333L57.085 40.0318L57.1095 40.031L57.135 40.0293L57.1595 40.0268L57.185 40.0253L57.2095 40.0228L57.234 40.0203L57.2595 40.0178L57.284 40.0153L57.3093 40.012L57.334 40.0088L57.3585 40.0055L57.3838 40.0015L57.4085 39.9973L57.4338 39.9933L57.4583 39.989L57.4838 39.9843L57.5083 39.98L57.533 39.9753L57.5583 39.9695L57.5828 39.9645L57.6083 39.9588L57.6328 39.953L57.6583 39.9473L57.6828 39.9408L57.708 39.9343L57.7335 39.9275L57.758 39.921L57.7835 39.9138L57.808 39.9063L57.8335 39.899L57.8588 39.8908L57.8833 39.8833L57.9088 39.8753L57.934 39.867L57.9588 39.858L57.984 39.849L58.0095 39.84L58.0398 39.8293L58.021 39.7645L58.002 39.6965L57.984 39.6285L57.966 39.5595L57.948 39.489L57.9308 39.4178L57.9138 39.3465L57.8973 39.2735L57.881 39.1998L57.8645 39.1253L57.849 39.0505L57.8335 38.9743L57.8178 38.8973L57.803 38.8203L57.7883 38.7415L57.7735 38.6628L57.759 38.5825L57.745 38.5023L57.7318 38.421L57.718 38.34L57.7048 38.257L57.6918 38.1743L57.6788 38.0908L57.6663 38.0063L57.654 37.921L57.6418 37.8358L57.6295 37.7498L57.618 37.6638L57.6065 37.5768L57.595 37.489L57.5845 37.4015L57.5738 37.3128L57.5633 37.2243L57.5525 37.135L57.5428 37.0458L57.532 36.9555L57.5223 36.8653L57.5133 36.7753L57.5035 36.6843L57.4945 36.5933L57.4855 36.5023L57.4765 36.4105L57.4683 36.3185L57.4593 36.2268L57.451 36.1343L57.4428 36.0423L57.4355 35.9498L57.4273 35.857L57.42 35.7653L57.4125 35.6728L57.4053 35.58L57.3985 35.4875L57.392 35.3948L57.3848 35.3023L57.379 35.2095L57.3725 35.117L57.3658 35.0243L57.36 34.9325L57.3545 34.84L57.3488 34.748L57.343 34.6563L57.333 34.4735L57.3233 34.2915L57.3135 34.1105L57.3053 33.931L57.297 33.753L57.2898 33.5768L57.2833 33.403L57.2765 33.231L57.2708 33.0605L57.266 32.8933L57.261 32.7275L57.2578 32.5653L57.2538 32.4063L57.2505 32.2498L57.248 32.0965L57.2463 31.9473L57.2448 31.8015L57.243 31.6595V31.521L57.2423 31.3875L57.243 31.258V31.1333L57.2448 31.0128L57.2455 30.8973L57.248 30.7868L57.2495 30.6818L57.252 30.5818L57.2553 30.4883L57.4878 30.248L57.727 30.481Z" fill="#FF6A68"/>
<path fill-rule="evenodd" clip-rule="evenodd" d="M51.0478 39.0231C51.6193 39.0231 52.0828 38.1799 52.0828 37.1394C52.0828 36.0991 51.6193 35.2559 51.0478 35.2559C50.476 35.2559 50.0128 36.0991 50.0128 37.1394C50.0128 38.1799 50.476 39.0231 51.0478 39.0231Z" fill="#FF6A68"/>
<path fill-rule="evenodd" clip-rule="evenodd" d="M51.1492 39.9508C52.0717 39.9508 52.8197 39.6793 52.8197 39.3443C52.8197 39.0093 52.0717 38.7378 51.1492 38.7378C50.2267 38.7378 49.4787 39.0093 49.4787 39.3443C49.4787 39.6793 50.2267 39.9508 51.1492 39.9508Z" fill="#FFAEAD"/>
<path fill-rule="evenodd" clip-rule="evenodd" d="M62.1693 39.0231C62.7413 39.0231 63.205 38.1799 63.205 37.1394C63.205 36.0991 62.7413 35.2559 62.1693 35.2559C61.597 35.2559 61.1333 36.0991 61.1333 37.1394C61.1333 38.1799 61.597 39.0231 62.1693 39.0231Z" fill="#FF6A68"/>
<path fill-rule="evenodd" clip-rule="evenodd" d="M62.1545 39.9508C63.077 39.9508 63.825 39.6793 63.825 39.3443C63.825 39.0093 63.077 38.7378 62.1545 38.7378C61.232 38.7378 60.484 39.0093 60.484 39.3443C60.484 39.6793 61.232 39.9508 62.1545 39.9508Z" fill="#FFAEAD"/>
<path d="M47.276 29.4485C47.6258 28.9272 48.6305 28.0502 50.179 28.483" stroke="#21167F" stroke-width="2.1803" stroke-linecap="round" stroke-linejoin="round"/>
<path d="M65.7933 29.2722C65.4445 28.7507 64.4398 27.873 62.8913 28.3065" stroke="#21167F" stroke-width="2.1803" stroke-linecap="round" stroke-linejoin="round"/>
<path fill-rule="evenodd" clip-rule="evenodd" d="M67.024 41.608C67.9505 41.608 68.7018 41.0543 68.7018 40.371C68.7018 39.688 67.9505 39.1343 67.024 39.1343C66.0973 39.1343 65.3463 39.688 65.3463 40.371C65.3463 41.0543 66.0973 41.608 67.024 41.608Z" fill="#FF7A79"/>
<path fill-rule="evenodd" clip-rule="evenodd" d="M46.7225 41.608C47.6487 41.608 48.3995 41.0543 48.3995 40.371C48.3995 39.688 47.6487 39.1343 46.7225 39.1343C45.7962 39.1343 45.0455 39.688 45.0455 40.371C45.0455 41.0543 45.7962 41.608 46.7225 41.608Z" fill="#FF7A79"/>
<path fill-rule="evenodd" clip-rule="evenodd" d="M39.728 30.0878C39.3972 28.4115 37.7692 27.3188 36.0947 27.65C34.4202 27.9813 33.3287 29.6108 33.6595 31.2878L35.2097 39.145C35.5395 40.822 37.1682 41.914 38.8427 41.5835C40.5172 41.2533 41.6087 39.622 41.278 37.946L39.728 30.0878Z" fill="#271FC3"/>
<path fill-rule="evenodd" clip-rule="evenodd" d="M74.1913 30.0878C74.5213 28.4115 76.1507 27.3188 77.8252 27.65C79.4997 27.9813 80.5915 29.6108 80.2605 31.2878L78.7105 39.145C78.3805 40.822 76.751 41.914 75.0765 41.5835C73.402 41.2533 72.3105 39.622 72.6412 37.946L74.1913 30.0878Z" fill="#271FC3"/>
<path d="M38.7193 29.8566C38.7193 29.8566 32.781 14.4166 38.7193 9.1018C44.6583 3.78703 68.412 3.78703 74.351 9.1018C80.2892 14.4166 75.2337 29.8566 75.2337 29.8566" stroke="#406EFF" stroke-width="2.541" stroke-linecap="round" stroke-linejoin="round"/>
<path d="M74.351 39.3765C72.7077 41.5962 71.0085 44.219 69.4217 45.3297C68.1687 46.2067 66.3625 46.0362 64.833 46.0362" stroke="#406EFF" stroke-width="2.541" stroke-linecap="round" stroke-linejoin="round"/>
<path fill-rule="evenodd" clip-rule="evenodd" d="M34.0313 74.755L34.0345 74.7565L34.3548 75.118L34.345 75.6188V75.6205L26.783 94.055L26.782 94.0565L26.5593 94.2288L26.154 94.2663L25.0323 93.95L25.029 93.9482L24.0693 93.2868L23.8392 92.9508L23.8294 92.6687L23.8302 92.6673L33.1708 75.0663L33.549 74.7393L34.0313 74.755Z" fill="#FFD743"/>
<path fill-rule="evenodd" clip-rule="evenodd" d="M79.5695 72.9212L79.5713 72.923L88.91 90.522L88.911 90.5237L88.9003 90.8057L88.671 91.1417L87.7113 91.8032L87.708 91.805L86.587 92.1212L86.1807 92.0835L85.9583 91.9115L85.9573 91.9097L78.3952 73.4755L78.3945 73.4737L78.3855 72.973L78.7057 72.6115L78.709 72.6097L79.1913 72.5942L79.5695 72.9212Z" fill="#FFD743"/>
<path fill-rule="evenodd" clip-rule="evenodd" d="M22.6421 68.1212C24.7023 64.3564 40.9955 59.6162 38.9353 63.3794L15.5231 113.658C13.4629 117.422 8.73813 118.804 4.97803 116.742C1.21873 114.679 -0.161849 109.95 1.89838 106.187L22.6421 68.1212H22.6421Z" fill="#F9A822"/>
<path d="M1.16545 112.013C-2.87308 107.013 9.2777 94.1403 15.7564 107.631" stroke="#FFD743" stroke-width="1.459" stroke-linecap="round" stroke-linejoin="round"/>
<path fill-rule="evenodd" clip-rule="evenodd" d="M88.8928 67.9243C86.8325 64.1606 72.5045 59.6163 74.5647 63.3793L97.977 113.658C100.038 117.422 104.762 118.804 108.522 116.742C112.282 114.679 113.662 109.95 111.602 106.187L88.8928 67.9243Z" fill="#F9A822"/>
<path d="M111.641 114.716C115.679 109.716 103.528 96.8436 97.0492 110.335" stroke="#FFD743" stroke-width="1.459" stroke-linecap="round" stroke-linejoin="round"/>
<path fill-rule="evenodd" clip-rule="evenodd" d="M62.7315 127.517C59.0198 129.663 57.745 134.422 59.8885 138.138C62.0323 141.855 66.7865 143.13 70.4993 140.985L108.244 119.171C111.956 117.026 113.23 112.265 111.088 108.549C108.945 104.833 104.189 103.557 100.477 105.703L62.7315 127.517Z" fill="#FFAEAD"/>
<path fill-rule="evenodd" clip-rule="evenodd" d="M50.3385 125.144C54.051 127.29 55.3253 132.049 53.1815 135.766C51.0378 139.483 46.2835 140.758 42.571 138.612L4.8265 116.799C1.11388 114.653 -0.160249 109.893 1.98348 106.177C4.12639 102.461 8.8814 101.185 12.594 103.331L50.3385 125.144H50.3385Z" fill="#FFAEAD"/>
<path fill-rule="evenodd" clip-rule="evenodd" d="M101.617 94.2016C101.616 91.9663 99.7227 90.1523 97.3923 90.1523H15.6727C13.3423 90.1523 11.4516 91.9671 11.4524 94.2016L16.5988 143.502C16.5997 145.737 18.4928 147.551 20.8232 147.551H93.7158C96.047 147.551 97.9377 145.736 97.936 143.502L101.617 94.2016Z" fill="#B0DDFF"/>
<path fill-rule="evenodd" clip-rule="evenodd" d="M101.618 95.1523C101.616 92.9285 99.7235 91.1235 97.3923 91.1235H15.6727C13.3423 91.1235 11.4516 92.9285 11.4533 95.1523L14.1276 143.69C14.1284 145.914 16.0216 147.72 18.352 147.72H94.0688C96.399 147.72 98.2905 145.914 98.2883 143.69L101.618 95.1523Z" fill="white"/>
<path fill-rule="evenodd" clip-rule="evenodd" d="M56.5345 115.379C59.0205 115.379 61.0375 116.953 61.0375 118.891C61.0375 120.83 59.0205 122.403 56.5345 122.403C54.0502 122.403 52.0335 120.83 52.0335 118.891C52.0335 116.953 54.0502 115.379 56.5345 115.379Z" fill="#B0DDFF"/>
<path fill-rule="evenodd" clip-rule="evenodd" d="M97.037 148.515C97.037 148.076 96.68 147.719 96.241 147.719H16.472C16.0331 147.719 15.6769 148.076 15.6769 148.515C15.6769 148.954 16.0331 149.311 16.472 149.311H96.241C96.6807 149.311 97.037 148.955 97.037 148.515Z" fill="#8680FF"/>
</g>
<defs>
<clipPath id="clip0">
<rect width="113.25" height="150" fill="white"/>
</clipPath>
</defs>
</svg>
